<svg viewBox="0 0 919 653" fill="none" xmlns="http://www.w3.org/2000/svg">
<path d="M635.124 315.618C654.808 315.618 670.764 299.661 670.764 279.978C670.764 260.295 654.808 244.338 635.124 244.338C615.441 244.338 599.485 260.295 599.485 279.978C599.485 299.661 615.441 315.618 635.124 315.618Z" fill="#B68E57"/>
<path d="M725.871 150.299C725.494 150.299 725.189 149.993 725.189 149.617V92.854C725.189 92.4772 725.494 92.1721 725.871 92.1721C726.247 92.1721 726.553 92.4772 726.553 92.854V149.617C726.553 149.993 726.247 150.299 725.871 150.299Z" fill="#897E7E"/>
<path d="M787.419 179.084C787.043 179.084 786.738 178.779 786.738 178.402V109.328C786.738 108.952 787.043 108.646 787.419 108.646C787.796 108.646 788.101 108.952 788.101 109.328V178.402C788.101 178.779 787.796 179.084 787.419 179.084Z" fill="#897E7E"/>
<path d="M563.067 143.517L206.908 233.507C199.571 235.36 195.127 242.81 196.981 250.146L254.173 476.499C256.026 483.836 263.476 488.28 270.812 486.427L626.971 396.437C634.308 394.583 638.752 387.133 636.899 379.797L579.706 153.444C577.853 146.108 570.403 141.663 563.067 143.517Z" fill="#161A23"/>
<path d="M569.219 135.399L213.059 225.389C205.723 227.243 201.279 234.693 203.132 242.029L260.325 468.382C262.178 475.718 269.628 480.163 276.964 478.309L633.123 388.319C640.459 386.466 644.904 379.016 643.05 371.68L585.858 145.326C584.005 137.99 576.555 133.546 569.219 135.399Z" fill="#535353"/>
<path d="M273.56 479.438C270.998 479.438 268.473 478.746 266.216 477.399C262.916 475.431 260.58 472.295 259.641 468.569L202.465 242.212C201.524 238.486 202.09 234.619 204.058 231.32C206.027 228.02 209.163 225.684 212.888 224.745L569.054 134.78C572.78 133.839 576.647 134.405 579.946 136.373C583.245 138.342 585.582 141.478 586.521 145.203L643.697 371.561C644.638 375.286 644.072 379.154 642.103 382.453C640.135 385.752 636.999 388.088 633.273 389.028L277.108 478.993C275.931 479.29 274.742 479.438 273.56 479.438ZM572.598 135.701C571.528 135.701 570.451 135.833 569.387 136.103L213.221 226.068C209.85 226.919 207.012 229.033 205.229 232.02C203.446 235.007 202.935 238.508 203.786 241.879L260.962 468.236C261.813 471.607 263.927 474.445 266.914 476.228C269.901 478.009 273.4 478.522 276.773 477.671L632.939 387.706C636.31 386.855 639.148 384.741 640.931 381.755C642.712 378.768 643.225 375.266 642.374 371.895L585.197 145.538C584.346 142.167 582.233 139.329 579.246 137.546C577.202 136.328 574.917 135.703 572.598 135.703V135.701Z" fill="#161A23"/>
<path d="M630.087 369.73L575.402 153.297C574.493 149.701 570.841 147.522 567.245 148.431L221.006 235.914C217.41 236.823 215.231 240.475 216.14 244.071L270.825 460.504C271.734 464.1 275.386 466.279 278.982 465.37L625.221 377.887C628.817 376.978 630.996 373.326 630.087 369.73Z" fill="#897E7E"/>
<path d="M277.293 466.235C273.985 466.235 270.965 463.996 270.118 460.647L215.447 244.214C214.963 242.297 215.254 240.308 216.267 238.609C217.279 236.913 218.893 235.711 220.808 235.227L567.05 147.768C571.008 146.768 575.039 149.174 576.037 153.129L630.708 369.563C631.191 371.48 630.901 373.469 629.888 375.167C628.875 376.864 627.261 378.066 625.346 378.549L279.104 466.009C278.499 466.161 277.891 466.235 277.292 466.235H277.293ZM271.443 460.313C272.257 463.539 275.545 465.502 278.771 464.685L625.013 377.226C626.576 376.831 627.892 375.851 628.717 374.467C629.542 373.083 629.779 371.46 629.386 369.897L574.715 153.464C573.901 150.238 570.613 148.277 567.387 149.091L221.145 236.551C219.582 236.946 218.266 237.926 217.441 239.31C216.616 240.694 216.377 242.317 216.772 243.879L271.443 460.313Z" fill="#161A23"/>
<path d="M242.744 257.999L242.134 255.58C241.231 252.005 243.396 248.375 246.971 247.471L515.462 179.117C519.037 178.215 522.667 180.38 523.572 183.955L524.182 186.374C525.084 189.949 522.919 193.579 519.344 194.483L250.853 262.837C247.278 263.739 243.648 261.574 242.744 257.999Z" fill="#535353"/>
<path d="M249.219 263.724C245.929 263.724 242.924 261.499 242.082 258.166L241.472 255.747C240.478 251.812 242.871 247.803 246.806 246.809L515.297 178.456C519.232 177.461 523.243 179.854 524.235 183.788L524.845 186.207C525.327 188.113 525.037 190.092 524.029 191.78C523.022 193.469 521.418 194.664 519.511 195.143L251.021 263.497C250.418 263.649 249.813 263.721 249.217 263.721L249.219 263.724ZM517.098 179.595C516.613 179.595 516.122 179.654 515.631 179.779L247.14 248.132C243.935 248.943 241.987 252.207 242.795 255.413L243.406 257.832C244.214 261.035 247.481 262.986 250.686 262.175L519.177 193.822C520.73 193.428 522.037 192.456 522.859 191.081C523.68 189.706 523.915 188.094 523.522 186.541L522.912 184.122C522.226 181.409 519.78 179.595 517.1 179.595H517.098Z" fill="#161A23"/>
<path d="M357.278 423.949L318.629 270.984C317.725 267.408 314.094 265.242 310.519 266.146L257.227 279.611C253.651 280.514 251.485 284.145 252.388 287.721L291.038 440.686C291.941 444.262 295.572 446.428 299.148 445.524L352.44 432.059C356.015 431.156 358.182 427.525 357.278 423.949Z" fill="#535353"/>
<path d="M297.466 446.395C296.156 446.395 294.864 446.042 293.707 445.353C292.02 444.345 290.824 442.741 290.344 440.835L251.704 287.865C250.71 283.93 253.103 279.921 257.038 278.927L310.333 265.465C312.239 264.983 314.218 265.274 315.906 266.281C317.593 267.288 318.789 268.893 319.269 270.799L357.909 423.768C358.903 427.704 356.51 431.712 352.575 432.707L299.28 446.169C298.679 446.321 298.069 446.397 297.464 446.397L297.466 446.395ZM291.667 440.5C292.059 442.053 293.033 443.36 294.408 444.18C295.783 445 297.395 445.237 298.948 444.843L352.242 431.382C355.446 430.573 357.396 427.307 356.585 424.101L317.946 271.131C317.554 269.578 316.58 268.272 315.205 267.452C313.83 266.632 312.218 266.395 310.665 266.788L257.371 280.25C254.167 281.059 252.217 284.325 253.028 287.531L291.667 440.5Z" fill="#161A23"/>
<path d="M582.276 252.322L570.761 206.748C569.857 203.173 566.226 201.006 562.651 201.91L339.429 258.311C335.853 259.214 333.687 262.845 334.59 266.421L346.105 311.995C347.009 315.57 350.64 317.737 354.215 316.833L577.438 260.432C581.013 259.529 583.179 255.898 582.276 252.322Z" fill="#535353"/>
<path d="M352.528 317.706C351.218 317.706 349.926 317.353 348.77 316.664C347.082 315.657 345.886 314.052 345.404 312.146L333.893 266.57C333.411 264.664 333.701 262.684 334.709 260.997C335.716 259.309 337.32 258.113 339.227 257.633L562.454 201.247C566.389 200.253 570.398 202.646 571.392 206.581L582.904 252.158C583.898 256.093 581.505 260.102 577.572 261.096L354.344 317.482C353.743 317.634 353.133 317.71 352.528 317.71V317.706ZM346.729 311.811C347.538 315.015 350.804 316.965 354.01 316.155L577.237 259.769C580.441 258.96 582.391 255.694 581.58 252.488L570.069 206.912C569.26 203.707 565.992 201.758 562.788 202.569L339.561 258.955C338.008 259.346 336.701 260.32 335.881 261.695C335.062 263.07 334.824 264.682 335.218 266.235L346.729 311.811Z" fill="#161A23"/>
<path d="M356.383 311.6L571.249 254.043L563.191 223.241C563.191 223.241 551.791 228.351 542.226 241.061C532.661 253.771 514.971 255.867 503.835 256.26C492.698 256.653 467.015 246.958 459.81 255.867C452.603 264.778 431.638 286.79 423.253 289.279C414.868 291.768 396.423 286.547 388.006 289.803C376.826 294.126 356.385 311.596 356.385 311.596L356.383 311.6Z" fill="#897E7E"/>
<path d="M451.281 400.204L430.383 317.494C429.48 313.918 425.849 311.752 422.273 312.655L359.291 328.569C355.715 329.472 353.549 333.103 354.452 336.679L375.35 419.389C376.254 422.965 379.885 425.131 383.46 424.227L446.443 408.314C450.019 407.41 452.185 403.779 451.281 400.204Z" fill="#897E7E"/>
<path d="M381.774 425.099C380.463 425.099 379.171 424.747 378.015 424.057C376.327 423.05 375.131 421.445 374.651 419.539L353.758 336.827C352.764 332.892 355.157 328.883 359.092 327.889L422.078 311.979C423.984 311.497 425.964 311.788 427.651 312.795C429.339 313.802 430.535 315.407 431.015 317.313L451.908 400.025C452.902 403.96 450.509 407.969 446.574 408.963L383.588 424.873C382.987 425.026 382.376 425.101 381.772 425.101L381.774 425.099ZM423.891 313.118C423.398 313.118 422.902 313.179 422.413 313.304L359.427 329.214C357.873 329.606 356.567 330.58 355.747 331.955C354.927 333.329 354.69 334.941 355.083 336.495L375.976 419.207C376.368 420.76 377.342 422.067 378.717 422.886C380.092 423.706 381.704 423.943 383.257 423.55L446.243 407.64C449.447 406.831 451.397 403.565 450.586 400.359L429.693 317.647C429.302 316.094 428.328 314.787 426.953 313.967C426.012 313.407 424.96 313.118 423.892 313.118H423.891Z" fill="#161A23"/>
<path d="M437.229 401.14L388.098 413.551C385.619 414.178 383.101 412.674 382.474 410.195L377.592 390.869L365.08 341.336C364.454 338.856 365.957 336.338 368.437 335.711L417.568 323.301C420.047 322.674 422.565 324.178 423.192 326.657L427.629 344.22L440.586 395.516C441.212 397.995 439.709 400.514 437.229 401.14Z" fill="#535353"/>
<path d="M386.966 414.374C384.591 414.374 382.422 412.768 381.814 410.36L364.421 341.501C364.073 340.125 364.283 338.696 365.009 337.478C365.737 336.259 366.895 335.395 368.271 335.048L417.402 322.637C418.779 322.29 420.207 322.5 421.426 323.226C422.644 323.953 423.508 325.111 423.856 326.488L428.293 344.051L441.249 395.347C441.968 398.187 440.24 401.082 437.398 401.8L388.267 414.211C387.832 414.321 387.396 414.372 386.966 414.372V414.374ZM418.711 323.839C418.386 323.839 418.06 323.88 417.737 323.961L368.606 336.371C366.494 336.904 365.211 339.057 365.744 341.167L383.137 410.025C383.67 412.137 385.823 413.42 387.933 412.887L437.064 400.477C439.176 399.944 440.459 397.791 439.926 395.681L426.969 344.385L422.532 326.823C422.273 325.801 421.633 324.939 420.727 324.398C420.108 324.029 419.415 323.839 418.711 323.839Z" fill="#161A23"/>
<path d="M389.396 359.349C394.145 359.349 397.994 355.499 397.994 350.75C397.994 346.001 394.145 342.152 389.396 342.152C384.647 342.152 380.798 346.001 380.798 350.75C380.798 355.499 384.647 359.349 389.396 359.349Z" fill="#897E7E"/>
<path d="M437.229 401.14L388.098 413.551C385.619 414.178 383.101 412.674 382.474 410.195L377.592 390.869C380.217 385.958 385.202 380.126 394.359 378.709C410.868 376.154 408.707 370.454 411.065 358.27C413.423 346.084 423.665 343.332 425.534 343.332C425.885 343.332 426.637 343.67 427.629 344.22L440.586 395.516C441.212 397.996 439.709 400.514 437.229 401.14Z" fill="#B68E57"/>
<path d="M607.765 367.008L479.433 399.422C474.687 400.62 469.868 397.746 468.669 392.998L461.549 364.802C467.469 362.814 471.715 357.169 471.601 350.554C471.461 342.444 464.662 335.906 456.553 336.064C455.801 336.079 455.062 336.151 454.342 336.274L447.844 310.543C447.201 307.996 448.745 305.409 451.291 304.766L506.715 290.766C507.825 298.111 514.347 303.678 522.09 303.275C529.659 302.882 535.76 296.686 536.043 289.112C536.116 287.161 535.811 285.294 535.194 283.573L580.781 272.058C584.126 271.213 587.523 273.24 588.368 276.585L610.184 362.95C610.636 364.738 609.552 366.554 607.763 367.006L607.765 367.008Z" fill="#897E7E"/>
<path d="M477.247 400.379C475.547 400.379 473.871 399.922 472.373 399.027C470.184 397.72 468.632 395.639 468.009 393.167L460.889 364.971C460.801 364.626 460.995 364.271 461.334 364.157C467.173 362.194 471.026 356.733 470.921 350.567C470.857 346.832 469.322 343.33 466.601 340.707C463.876 338.081 460.312 336.675 456.569 336.748C455.86 336.763 455.15 336.829 454.459 336.948C454.108 337.009 453.768 336.789 453.682 336.443L447.184 310.712C446.449 307.804 448.217 304.841 451.125 304.106L506.55 290.106C506.737 290.058 506.934 290.093 507.095 290.2C507.255 290.306 507.364 290.475 507.393 290.666C508.478 297.846 514.784 302.972 522.057 302.595C529.249 302.222 535.093 296.289 535.363 289.088C535.431 287.27 535.159 285.492 534.554 283.805C534.49 283.623 534.504 283.423 534.594 283.254C534.685 283.085 534.843 282.96 535.03 282.914L580.617 271.398C584.323 270.463 588.098 272.716 589.034 276.42L610.85 362.784C611.112 363.826 610.954 364.907 610.405 365.83C609.855 366.752 608.977 367.405 607.936 367.668L479.604 400.082C478.823 400.278 478.034 400.376 477.249 400.376L477.247 400.379ZM462.363 365.238L469.333 392.834C469.868 394.954 471.197 396.736 473.073 397.856C474.95 398.975 477.15 399.297 479.269 398.762L607.602 366.348C608.289 366.173 608.87 365.743 609.232 365.133C609.596 364.523 609.701 363.81 609.526 363.12L587.71 276.756C586.959 273.78 583.928 271.972 580.952 272.723L536.076 284.059C536.574 285.696 536.793 287.402 536.728 289.141C536.433 297.041 530.02 303.551 522.129 303.961C521.853 303.976 521.576 303.983 521.302 303.983C513.926 303.983 507.617 298.831 506.173 291.613L451.46 305.433C449.282 305.983 447.958 308.203 448.508 310.381L454.855 335.513C455.413 335.441 455.978 335.399 456.542 335.388C460.654 335.309 464.559 336.849 467.548 339.729C470.531 342.606 472.215 346.448 472.285 350.548C472.397 357.101 468.436 362.927 462.365 365.242L462.363 365.238Z" fill="#161A23"/>
<path d="M356.004 262.063C359.983 262.063 363.208 258.838 363.208 254.859C363.208 250.881 359.983 247.656 356.004 247.656C352.026 247.656 348.801 250.881 348.801 254.859C348.801 258.838 352.026 262.063 356.004 262.063Z" fill="#161A23"/>
<path d="M252.23 242.703C254.562 242.703 256.452 240.813 256.452 238.481C256.452 236.149 254.562 234.259 252.23 234.259C249.898 234.259 248.008 236.149 248.008 238.481C248.008 240.813 249.898 242.703 252.23 242.703Z" fill="#B68E57"/>
<path d="M269.133 238.51C271.464 238.51 273.355 236.62 273.355 234.288C273.355 231.956 271.464 230.066 269.133 230.066C266.801 230.066 264.911 231.956 264.911 234.288C264.911 236.62 266.801 238.51 269.133 238.51Z" fill="#161A23"/>
<path d="M284.988 234.58C287.319 234.58 289.21 232.69 289.21 230.358C289.21 228.026 287.319 226.136 284.988 226.136C282.656 226.136 280.766 228.026 280.766 230.358C280.766 232.69 282.656 234.58 284.988 234.58Z" fill="#161A23"/>
<path d="M305.629 287.308L305.581 287.119C305.085 285.153 303.089 283.963 301.123 284.459L265.757 293.395C263.792 293.892 262.601 295.888 263.097 297.853L263.145 298.042C263.642 300.007 265.638 301.198 267.603 300.702L302.969 291.766C304.935 291.269 306.126 289.273 305.629 287.308Z" fill="#897E7E"/>
<path d="M266.671 301.484C265.896 301.484 265.131 301.274 264.449 300.868C263.451 300.272 262.743 299.324 262.459 298.195L262.411 298.006C261.823 295.679 263.238 293.308 265.565 292.72L300.933 283.787C302.059 283.502 303.23 283.673 304.23 284.268C305.228 284.864 305.936 285.812 306.221 286.941L306.268 287.13C306.553 288.257 306.382 289.428 305.787 290.428C305.191 291.428 304.243 292.133 303.114 292.418L267.747 301.351C267.39 301.441 267.03 301.485 266.673 301.485L266.671 301.484ZM263.782 297.861C263.977 298.635 264.462 299.285 265.148 299.695C265.833 300.103 266.636 300.221 267.41 300.026L302.778 291.093C303.552 290.898 304.202 290.413 304.612 289.727C305.02 289.042 305.138 288.239 304.943 287.465L304.895 287.275C304.701 286.502 304.215 285.851 303.53 285.441C302.844 285.031 302.041 284.914 301.267 285.11L265.899 294.043C264.302 294.446 263.332 296.074 263.734 297.671L263.782 297.861Z" fill="#161A23"/>
<path d="M266.462 312.57L266.414 312.381C265.918 310.416 267.109 308.42 269.074 307.924L283.732 303.928C285.697 303.432 287.693 304.623 288.189 306.588L288.237 306.777C288.733 308.742 287.542 310.738 285.578 311.234L270.919 315.23C268.954 315.726 266.958 314.535 266.462 312.57Z" fill="#B68E57"/>
<path d="M270.654 327.902L270.607 327.712C270.11 325.747 271.302 323.751 273.266 323.255L300.99 315.548C302.954 315.052 304.951 316.243 305.447 318.208L305.495 318.397C305.991 320.362 304.8 322.358 302.835 322.854L275.112 330.561C273.147 331.058 271.151 329.867 270.654 327.902Z" fill="#897E7E"/>
<path d="M274.217 331.353C272.263 331.353 270.489 330.037 269.991 328.069L269.943 327.879C269.355 325.552 270.77 323.181 273.097 322.593L300.806 314.89C301.949 314.601 303.12 314.772 304.118 315.368C305.116 315.963 305.824 316.912 306.109 318.04L306.156 318.23C306.745 320.557 305.329 322.928 303.002 323.516L275.296 331.219C274.935 331.311 274.573 331.353 274.219 331.353H274.217ZM271.316 327.734C271.721 329.331 273.347 330.304 274.945 329.899L302.651 322.196C304.263 321.788 305.236 320.161 304.831 318.564L304.783 318.375C304.589 317.601 304.103 316.95 303.418 316.541C302.732 316.131 301.929 316.015 301.155 316.21L273.447 323.913C271.835 324.321 270.862 325.948 271.267 327.545L271.314 327.734H271.316Z" fill="#161A23"/>
<path d="M576.044 644.266H294.345C294.042 630.858 298.922 610.61 332.979 617.35C354.199 575.424 415.277 542.299 458.236 604.412C481.817 590.795 511.549 601.822 518.796 623.046C533.758 597.113 577.064 612.983 576.044 644.266Z" fill="#35383F"/>
<path d="M893.789 602.513C893.789 602.513 876.535 588.712 854.451 602.513C852.036 578.014 803.037 524.529 746.1 549.028C739.009 544.543 708.19 526.152 670.185 534.881C664.829 536.11 609.991 549.579 603.587 593.887C600.565 614.795 609.77 632.602 618.503 644.266H904.948C908.429 633.994 909.218 618.538 893.787 602.513H893.789Z" fill="#35383F"/>
<path d="M433.04 466.327C433.04 464.257 447.792 429.061 460.732 429.061C473.672 429.061 460.732 469.836 460.732 469.836L427.778 514.693L424.501 497.612L433.04 466.327Z" fill="#897E7E"/>
<path d="M427.778 515.377C427.728 515.377 427.677 515.371 427.627 515.36C427.363 515.3 427.159 515.09 427.107 514.823L423.83 497.743C423.81 497.64 423.815 497.535 423.841 497.434L432.366 466.203C432.57 464.536 436.34 455.287 441.444 446.571C446.306 438.271 453.599 428.376 460.731 428.376C462.578 428.376 464.057 429.119 465.129 430.582C471.18 438.85 461.784 468.771 461.381 470.041C461.359 470.113 461.324 470.179 461.28 470.24L428.326 515.097C428.195 515.274 427.989 515.377 427.776 515.377H427.778ZM425.201 497.64L428.155 513.03L460.115 469.523C460.732 467.538 469.505 438.872 464.03 431.389C463.219 430.281 462.14 429.742 460.732 429.742C454.273 429.742 447.362 439.197 442.701 447.128C437.26 456.385 433.777 465.428 433.722 466.334C433.722 466.395 433.715 466.446 433.698 466.505L425.199 497.638L425.201 497.64Z" fill="#1A1A1A"/>
<path d="M449.173 514.693C449.173 514.693 455.902 502.271 465.046 501.58C474.19 500.891 478.504 511.759 490.408 513.485C502.313 515.211 512.319 506.583 513.354 500.2C514.389 493.816 505.071 483.81 491.615 481.566C478.157 479.323 458.488 483.808 453.312 490.019C448.136 496.23 442.098 514.345 442.098 514.345L449.173 514.691V514.693Z" fill="#897E7E"/>
<path d="M449.173 515.377C449.162 515.377 449.151 515.377 449.14 515.377L442.065 515.031C441.852 515.02 441.655 514.912 441.536 514.735C441.416 514.559 441.383 514.336 441.451 514.134C441.699 513.39 447.59 495.824 452.788 489.585C458.187 483.108 478.201 478.64 491.727 480.895C498.063 481.952 503.978 484.77 508.382 488.83C512.471 492.602 514.582 496.893 514.028 500.31C513.023 506.514 504.244 514.39 493.477 514.39C492.439 514.39 491.382 514.316 490.31 514.162C484.239 513.281 480.067 510.08 476.385 507.255C472.667 504.4 469.454 501.933 465.098 502.262C456.435 502.917 449.838 514.899 449.774 515.02C449.654 515.241 449.423 515.377 449.173 515.377ZM443.039 513.712L448.785 513.991C450.028 511.835 456.393 501.549 464.995 500.9C469.873 500.533 473.441 503.271 477.218 506.17C480.94 509.026 484.789 511.982 490.507 512.811C495.705 513.565 501.059 512.324 505.581 509.317C509.398 506.778 512.185 503.158 512.683 500.093C513.157 497.175 511.155 493.243 507.459 489.835C503.248 485.952 497.583 483.255 491.505 482.242C485.213 481.193 477.196 481.577 469.509 483.292C462.05 484.957 456.192 487.637 453.84 490.46C449.441 495.739 444.306 510.063 443.041 513.712H443.039Z" fill="#1A1A1A"/>
<path d="M445.462 512.818C445.357 512.818 445.252 512.794 445.153 512.745C444.817 512.574 444.682 512.164 444.853 511.828C447.675 506.264 452.018 501.983 457.76 499.105C462.326 496.816 467.777 495.408 473.964 494.921C484.454 494.096 493.582 496.239 493.672 496.261C494.039 496.349 494.266 496.717 494.177 497.085C494.089 497.452 493.721 497.676 493.354 497.59C493.264 497.568 484.316 495.471 474.036 496.287C460.37 497.371 450.961 502.808 446.07 512.447C445.949 512.684 445.71 512.82 445.46 512.822L445.462 512.818Z" fill="#1A1A1A"/>
<path d="M435.198 498.296C435.147 498.296 435.093 498.29 435.04 498.277C434.672 498.191 434.446 497.822 434.533 497.456C439.328 477.247 452.919 451.486 453.055 451.227C453.231 450.894 453.645 450.768 453.978 450.944C454.31 451.121 454.437 451.534 454.261 451.867C454.125 452.124 440.615 477.732 435.86 497.77C435.785 498.084 435.505 498.296 435.196 498.296H435.198Z" fill="#1A1A1A"/>
<path d="M389.835 512.772C389.835 512.772 379.987 501.582 363.251 510.726C346.516 519.871 330.297 530.395 323.224 519.698C316.15 509 338.234 486.227 359.283 487.951C380.332 489.677 392.237 500.891 396.722 512.969C394.996 516.246 389.835 512.772 389.835 512.772Z" fill="#897E7E"/>
<path d="M331.78 524.892C328.053 524.892 324.926 523.51 322.655 520.075C320.329 516.558 320.785 511.686 323.939 506.354C327.002 501.178 332.284 496.158 338.432 492.581C343.263 489.773 350.81 486.573 359.34 487.271C369.313 488.089 377.82 491.035 384.619 496.027C390.502 500.347 394.91 506.124 397.364 512.732C397.432 512.914 397.419 513.116 397.329 513.287C396.871 514.156 396.176 514.715 395.265 514.945C392.802 515.566 389.591 513.43 389.455 513.34C389.407 513.307 389.363 513.268 389.324 513.226C389.3 513.198 386.881 510.508 382.523 508.94C376.688 506.843 370.315 507.646 363.58 511.326C362.014 512.18 360.432 513.061 358.903 513.91C348.838 519.503 339.14 524.892 331.782 524.892H331.78ZM356.965 488.541C343.829 488.541 330.678 497.645 325.114 507.05C322.241 511.908 321.77 516.266 323.792 519.323C329.854 528.491 343.641 520.83 358.237 512.719C359.77 511.868 361.355 510.987 362.924 510.129C371.793 505.282 378.765 506.122 383.053 507.681C387.367 509.249 389.85 511.785 390.284 512.252C391.129 512.801 393.421 514.005 394.932 513.621C395.368 513.511 395.708 513.276 395.967 512.903C393.34 506.056 384.654 490.717 359.226 488.633C358.474 488.572 357.719 488.541 356.965 488.541Z" fill="#1A1A1A"/>
<path d="M348.126 505.571C347.891 505.571 347.663 505.45 347.536 505.233C347.347 504.907 347.455 504.488 347.781 504.299C347.841 504.264 353.868 500.764 361.665 498.39C372.069 495.219 380.91 495.473 387.231 499.121C387.558 499.31 387.67 499.728 387.481 500.053C387.291 500.38 386.874 500.49 386.549 500.303C378.994 495.941 369.078 497.561 362.092 499.687C354.444 502.014 348.531 505.444 348.472 505.477C348.363 505.54 348.246 505.571 348.128 505.571H348.126Z" fill="#1A1A1A"/>
<path d="M392.927 511.934C392.927 511.934 360.145 496.925 351.692 474.149C343.239 451.376 350.484 444.82 366.358 442.921C382.231 441.022 405.35 457.587 412.596 481.051C419.841 504.516 416.391 514.868 416.391 514.868L392.927 511.934Z" fill="#897E7E"/>
<path d="M416.391 515.55C416.364 515.55 416.334 515.55 416.307 515.544L392.842 512.611C392.772 512.601 392.706 512.583 392.642 512.554C392.559 512.515 384.28 508.697 375.083 502.137C366.564 496.061 355.478 486.314 351.05 474.386C346.817 462.981 346.308 455.274 349.449 450.13C352.126 445.746 357.314 443.314 366.275 442.243C374.311 441.283 384.1 444.816 393.133 451.938C402.668 459.458 409.811 469.725 413.246 480.849C420.473 504.255 417.182 514.653 417.038 515.083C416.944 515.364 416.682 515.55 416.391 515.55ZM393.118 511.269L415.882 514.114C416.432 511.723 418.124 501.266 411.943 481.252C408.589 470.389 401.608 460.36 392.289 453.01C383.668 446.211 374.004 442.693 366.439 443.597C357.934 444.614 353.054 446.849 350.617 450.841C347.751 455.534 348.312 463.081 352.333 473.91C356.64 485.512 367.514 495.059 375.877 501.025C384.446 507.137 392.186 510.831 393.118 511.269Z" fill="#1A1A1A"/>
<path d="M418.807 514.177C418.807 514.177 407.936 493.991 405.005 474.495C402.071 454.999 402.762 420.837 420.36 423.943C437.957 427.05 442.444 446.717 440.201 468.284C437.959 489.85 432.265 511.59 432.265 511.59L418.807 514.178V514.177Z" fill="#897E7E"/>
<path d="M418.807 514.859C418.558 514.859 418.327 514.723 418.205 514.5C418.097 514.298 407.245 493.986 404.328 474.596C403.01 465.834 402.65 456.105 403.341 447.908C403.953 440.657 405.723 430.998 410.682 426.162C413.346 423.567 416.641 422.592 420.477 423.271C428.958 424.767 434.974 430.042 438.358 438.947C441.223 446.487 442.095 456.657 440.88 468.354C438.657 489.725 432.982 511.545 432.925 511.762C432.858 512.015 432.651 512.21 432.393 512.26L418.935 514.848C418.893 514.857 418.849 514.86 418.807 514.86V514.859ZM418.209 424.429C415.689 424.429 413.485 425.335 411.636 427.138C407.949 430.733 405.552 437.953 404.703 448.02C404.021 456.117 404.376 465.728 405.679 474.39C408.324 491.969 417.584 510.346 419.176 513.408L431.711 510.997C432.504 507.881 437.479 487.85 439.523 468.209C440.718 456.723 439.874 446.77 437.084 439.429C433.882 431.003 428.215 426.018 420.242 424.611C419.544 424.487 418.867 424.427 418.211 424.427L418.209 424.429Z" fill="#1A1A1A"/>
<path d="M448.827 511.243C448.827 511.243 459.006 495.024 468.669 483.983C478.332 472.94 486.266 462.072 478.332 456.378C470.395 450.683 450.726 470.352 444.861 477.6C438.996 484.847 427.78 514.693 427.78 514.693L437.097 515.383L448.829 511.241L448.827 511.243Z" fill="#897E7E"/>
<path d="M437.095 516.066C437.078 516.066 437.062 516.066 437.045 516.064L427.728 515.375C427.513 515.358 427.318 515.243 427.203 515.062C427.087 514.881 427.063 514.656 427.138 514.454C427.598 513.232 438.459 484.419 444.328 477.169C449.004 471.392 469.825 449.435 478.727 455.822C480.772 457.289 481.941 459.175 482.201 461.428C482.928 467.736 476.372 476.212 469.182 484.431C459.668 495.305 449.507 511.443 449.404 511.605C449.322 511.736 449.199 511.835 449.053 511.886L437.321 516.027C437.248 516.053 437.17 516.066 437.093 516.066H437.095ZM428.741 514.079L437.001 514.691L448.375 510.677C449.586 508.767 459.148 493.824 468.152 483.533C475.137 475.55 481.51 467.365 480.844 461.585C480.627 459.704 479.675 458.182 477.931 456.931C473.981 454.098 466.671 458.491 461.234 462.674C455.007 467.466 448.656 473.991 445.388 478.026C440.21 484.422 430.621 509.153 428.741 514.077V514.079Z" fill="#1A1A1A"/>
<path d="M437.441 514.342C437.387 514.342 437.334 514.336 437.279 514.322C436.913 514.234 436.687 513.864 436.775 513.498C440.018 500.077 448.456 488.769 454.964 481.647C462.004 473.942 468.379 469.328 468.441 469.282C468.748 469.062 469.174 469.132 469.393 469.439C469.614 469.745 469.544 470.172 469.237 470.391C469.174 470.437 462.898 474.984 455.95 482.592C449.559 489.591 441.273 500.693 438.1 513.82C438.025 514.132 437.746 514.342 437.437 514.342H437.441Z" fill="#1A1A1A"/>
<path d="M425.536 518.138C425.275 518.138 425.026 517.987 424.912 517.733C418.882 504.295 419.145 447.071 419.159 444.641C419.161 444.265 419.472 443.961 419.847 443.963C420.224 443.965 420.529 444.272 420.525 444.651C420.521 445.242 420.249 504.007 426.159 517.176C426.313 517.52 426.159 517.924 425.815 518.079C425.725 518.119 425.629 518.139 425.536 518.139V518.138Z" fill="#1A1A1A"/>
<path d="M404.83 518.31C404.51 518.31 404.225 518.084 404.161 517.759C400.944 501.338 376.888 462.478 376.645 462.088C376.447 461.768 376.544 461.348 376.866 461.147C377.186 460.949 377.607 461.046 377.807 461.368C378.803 462.971 402.238 500.831 405.503 517.498C405.574 517.867 405.333 518.226 404.964 518.299C404.92 518.309 404.876 518.312 404.832 518.312L404.83 518.31Z" fill="#1A1A1A"/>
<path d="M459.006 511.071H386.887L403.562 629.303H442.333L459.006 511.071Z" fill="#897E7E"/>
<path d="M442.333 629.985H403.562C403.222 629.985 402.933 629.735 402.885 629.397L386.212 511.166C386.185 510.971 386.244 510.773 386.372 510.622C386.503 510.473 386.69 510.387 386.887 510.387H459.006C459.205 510.387 459.392 510.473 459.521 510.622C459.651 510.771 459.708 510.969 459.681 511.166L443.008 629.397C442.96 629.733 442.672 629.985 442.332 629.985H442.333ZM404.155 628.619H441.74L458.221 511.754H387.675L404.157 628.619H404.155Z" fill="#1A1A1A"/>
<path d="M457.707 509.804H388.402C384.892 509.804 382.047 512.649 382.047 516.158V516.16C382.047 519.669 384.892 522.514 388.402 522.514H457.707C461.216 522.514 464.061 519.669 464.061 516.16V516.158C464.061 512.649 461.216 509.804 457.707 509.804Z" fill="#B68E57"/>
<path d="M457.707 523.196H388.401C384.521 523.196 381.364 520.038 381.364 516.158C381.364 512.278 384.521 509.12 388.401 509.12H457.707C461.587 509.12 464.745 512.278 464.745 516.158C464.745 520.038 461.587 523.196 457.707 523.196ZM388.401 510.486C385.273 510.486 382.729 513.029 382.729 516.158C382.729 519.286 385.273 521.83 388.401 521.83H457.707C460.835 521.83 463.379 519.286 463.379 516.158C463.379 513.029 460.835 510.486 457.707 510.486H388.401Z" fill="#1A1A1A"/>
<path d="M414.799 620.355H402.81C402.433 620.355 402.128 620.05 402.128 619.673C402.128 619.296 402.433 618.991 402.81 618.991H414.799C415.176 618.991 415.481 619.296 415.481 619.673C415.481 620.05 415.176 620.355 414.799 620.355Z" fill="#1A1A1A"/>
<path d="M403.562 629.303L405.574 643.576H440.319L442.334 629.303H403.562Z" fill="#897E7E"/>
<path d="M440.319 644.259H405.574C405.234 644.259 404.946 644.009 404.898 643.671L402.885 629.397C402.858 629.2 402.917 629.003 403.045 628.852C403.176 628.704 403.363 628.617 403.56 628.617H442.332C442.53 628.617 442.718 628.704 442.846 628.852C442.977 629.001 443.034 629.2 443.006 629.397L440.994 643.671C440.946 644.007 440.657 644.259 440.317 644.259H440.319ZM406.166 642.893H439.725L441.545 629.985H404.345L406.164 642.893H406.166Z" fill="#1A1A1A"/>
<path d="M790.441 594.749C781.249 597.263 760.421 597.683 760.421 597.683C760.248 609.069 762.319 619.421 762.319 619.421C762.319 619.421 783.723 616.278 798.034 622.871C797.825 619.502 793.956 600.212 790.443 594.749H790.441Z" fill="#897E7E"/>
<path d="M798.033 623.555C797.935 623.555 797.838 623.535 797.748 623.493C783.789 617.061 762.63 620.066 762.418 620.098C762.062 620.151 761.722 619.912 761.65 619.555C761.63 619.451 759.568 609.001 759.739 597.672C759.744 597.304 760.04 597.006 760.408 596.999C760.615 596.995 781.257 596.552 790.261 594.089C790.55 594.01 790.855 594.128 791.015 594.378C794.63 600 798.49 619.252 798.713 622.827C798.727 623.066 798.615 623.298 798.417 623.432C798.301 623.511 798.167 623.551 798.031 623.551L798.033 623.555ZM774.309 617.989C774.476 617.989 774.643 617.989 774.812 617.989C781.078 618.023 789.919 618.721 797.227 621.772C796.529 616.615 793.202 600.896 790.122 595.538C781.587 597.712 764.705 598.254 761.095 598.348C761.023 607.698 762.446 616.309 762.871 618.658C764.47 618.46 768.859 617.988 774.309 617.988V617.989Z" fill="#1A1A1A"/>
<path d="M656.643 374.081C656.643 374.081 680.453 417.56 707.626 422.993C722.119 407.206 721.601 402.808 721.601 402.808C721.601 402.808 689.768 395.303 674.758 366.317C661.3 357.259 656.643 374.081 656.643 374.081Z" fill="#897E7E"/>
<path d="M707.626 423.675C707.582 423.675 707.536 423.671 707.492 423.662C701.186 422.401 694.55 419.012 687.77 413.589C682.375 409.275 676.872 403.669 671.413 396.927C662.133 385.463 656.104 374.516 656.043 374.408C655.959 374.251 655.937 374.069 655.985 373.897C656.076 373.562 658.317 365.693 664.237 363.504C667.478 362.306 671.147 363.061 675.139 365.749C675.234 365.813 675.312 365.899 675.363 366C683.039 380.822 695.249 389.862 704.14 394.834C713.778 400.225 721.676 402.122 721.755 402.14C722.035 402.206 722.242 402.44 722.277 402.725C722.334 403.206 722.419 407.884 708.126 423.452C707.996 423.594 707.812 423.673 707.623 423.673L707.626 423.675ZM657.381 374.001C658.332 375.691 664.057 385.673 672.488 396.086C680.868 406.434 693.692 419.322 707.384 422.245C718.585 409.996 720.518 404.781 720.851 403.316C718.811 402.763 711.756 400.657 703.474 396.027C697.716 392.806 692.49 389.011 687.943 384.743C682.296 379.446 677.684 373.404 674.233 366.785C670.683 364.436 667.483 363.762 664.715 364.784C660.014 366.519 657.812 372.656 657.38 374.001H657.381Z" fill="#1A1A1A"/>
<path d="M671.615 376.467L551.221 420.181C546.944 421.734 542.217 419.525 540.664 415.247L531.676 390.491C537.291 388.406 541.29 383.001 541.29 376.66C541.29 368.513 534.688 361.907 526.538 361.907C524.809 361.907 523.147 362.205 521.603 362.755L512.615 337.998C511.062 333.721 513.271 328.993 517.548 327.44L563.47 310.767C565.782 315.901 570.938 319.472 576.932 319.472C585.082 319.472 591.684 312.868 591.684 304.72C591.684 303.334 591.493 301.993 591.135 300.719L637.944 283.724C642.221 282.171 646.949 284.38 648.502 288.658L676.55 365.907C678.104 370.184 675.894 374.912 671.617 376.465L671.615 376.467Z" fill="#535353"/>
<path d="M548.418 421.359C544.77 421.359 541.338 419.104 540.022 415.481L531.034 390.724C530.905 390.371 531.087 389.982 531.438 389.851C536.923 387.816 540.608 382.514 540.608 376.659C540.608 368.901 534.297 362.591 526.54 362.591C524.923 362.591 523.34 362.863 521.835 363.398C521.482 363.523 521.092 363.341 520.963 362.988L511.975 338.231C511.161 335.991 511.27 333.568 512.279 331.409C513.288 329.249 515.076 327.613 517.317 326.799L563.239 310.126C563.575 310.005 563.948 310.161 564.093 310.488C566.365 315.532 571.403 318.79 576.932 318.79C584.69 318.79 591 312.479 591 304.722C591 303.426 590.824 302.141 590.477 300.906C590.379 300.562 590.565 300.202 590.901 300.079L637.711 283.084C642.335 281.406 647.463 283.801 649.143 288.426L677.192 365.673C678.006 367.914 677.898 370.337 676.889 372.496C675.88 374.656 674.091 376.292 671.851 377.106L551.457 420.82C550.455 421.184 549.429 421.357 548.42 421.357L548.418 421.359ZM532.543 390.882L541.305 415.016C541.994 416.913 543.38 418.429 545.209 419.284C547.038 420.138 549.089 420.23 550.988 419.541L671.382 375.827C673.279 375.138 674.795 373.752 675.65 371.923C676.504 370.094 676.596 368.043 675.907 366.144L647.858 288.896C646.436 284.98 642.093 282.95 638.176 284.371L591.949 301.154C592.225 302.32 592.364 303.518 592.364 304.726C592.364 313.236 585.44 320.16 576.93 320.16C571.078 320.16 565.725 316.831 563.119 311.626L517.782 328.087C515.885 328.777 514.369 330.162 513.514 331.991C512.659 333.82 512.567 335.873 513.257 337.77L522.018 361.902C523.476 361.455 524.994 361.229 526.538 361.229C535.048 361.229 541.972 368.153 541.972 376.663C541.972 382.859 538.21 388.489 532.541 390.884L532.543 390.882Z" fill="#161A23"/>
<path d="M731.664 306.793L726.402 306.873C726.402 306.873 715.258 318.158 726.801 330.769C738.706 329.922 739.419 313.532 739.419 313.532L731.664 306.793Z" fill="#161A23"/>
<path d="M739.386 382.431L738.947 366.558C738.947 366.558 725.251 369.07 722.908 349.1C721.73 339.062 734.881 311.458 738.333 310.198C741.785 308.937 768.6 298.219 775.123 322.555C777.351 334.118 769.052 347.047 766.793 358.257C764.536 369.469 765.9 381.547 765.9 381.547L739.386 382.431Z" fill="#897E7E"/>
<path d="M739.386 383.113C739.213 383.113 739.044 383.047 738.919 382.927C738.787 382.802 738.71 382.631 738.704 382.449L738.285 367.317C736.721 367.425 733.083 367.331 729.591 364.753C725.571 361.782 723.094 356.542 722.23 349.177C721.476 342.751 726.193 330.888 728.257 326.086C731.433 318.695 735.866 310.368 738.098 309.554C738.191 309.519 738.303 309.479 738.432 309.431C752.379 304.251 760.871 306.036 765.536 308.444C770.55 311.032 773.996 315.719 775.779 322.375C775.783 322.391 775.787 322.406 775.79 322.422C777.274 330.12 774.245 338.298 771.317 346.207C769.734 350.478 768.24 354.513 767.46 358.389C765.251 369.361 766.562 381.348 766.576 381.468C766.598 381.657 766.539 381.846 766.415 381.99C766.29 382.133 766.111 382.22 765.92 382.225L739.406 383.109C739.406 383.109 739.392 383.109 739.384 383.109L739.386 383.113ZM738.947 365.874C739.103 365.874 739.256 365.927 739.379 366.026C739.533 366.151 739.625 366.339 739.63 366.537L740.051 381.725L765.152 380.887C764.904 378.082 764.19 367.73 766.126 358.119C766.927 354.138 768.44 350.054 770.041 345.731C772.901 338.007 775.858 330.021 774.46 322.704C772.778 316.449 769.567 312.058 764.915 309.655C760.494 307.372 752.394 305.702 738.912 310.708C738.781 310.758 738.665 310.8 738.57 310.835C737.269 311.311 733.319 317.768 729.514 326.624C725.307 336.415 723.092 344.786 723.588 349.017C724.404 355.978 726.691 360.896 730.383 363.637C734.416 366.629 738.783 365.89 738.827 365.883C738.868 365.876 738.908 365.872 738.949 365.872L738.947 365.874Z" fill="#1A1A1A"/>
<path d="M738.946 367.239C738.61 367.239 738.318 366.991 738.27 366.649C738.219 366.276 738.481 365.931 738.855 365.881C738.926 365.872 746.128 364.879 749.727 363.545C750.08 363.414 750.473 363.595 750.603 363.947C750.734 364.3 750.554 364.694 750.201 364.824C746.462 366.21 739.342 367.192 739.04 367.232C739.009 367.236 738.978 367.238 738.946 367.238V367.239Z" fill="#1A1A1A"/>
<path d="M572.015 413.073C572.015 413.073 640.166 471.389 684.678 457.242C680.192 429.636 679.848 426.186 679.848 426.186C679.848 426.186 667.943 432.397 646.893 426.013C625.844 419.63 609.109 416.696 604.795 411.52C598.239 403.238 599.187 405.137 598.325 398.667C597.463 392.197 598.325 391.592 595.048 391.592C591.77 391.592 589.872 399.701 590.131 404.445L590.045 406.688L572.015 413.071V413.073Z" fill="#897E7E"/>
<path d="M669.522 460.131C662.938 460.131 655.784 459.076 648.116 456.967C636.871 453.876 624.49 448.523 611.318 441.057C588.918 428.362 571.743 413.738 571.572 413.593C571.387 413.435 571.3 413.189 571.344 412.95C571.388 412.711 571.558 412.512 571.787 412.432L589.381 406.202L589.449 404.454C589.263 400.887 590.295 394.61 592.726 392.042C593.436 391.292 594.219 390.914 595.05 390.914C596.3 390.914 597.303 390.978 597.895 391.781C598.375 392.432 598.465 393.395 598.628 395.145C598.713 396.049 598.818 397.176 599.005 398.58C599.104 399.328 599.18 399.96 599.246 400.517C599.522 402.843 600.882 405.532 603.326 408.585C603.904 409.305 604.567 410.134 605.333 411.101C608.256 414.606 617.915 417.234 630.143 420.563C635.24 421.951 641.017 423.522 647.094 425.364C657.808 428.614 666.059 428.5 671.093 427.833C676.545 427.11 679.504 425.599 679.534 425.585C679.736 425.48 679.975 425.484 680.173 425.59C680.372 425.699 680.506 425.897 680.528 426.123C680.532 426.158 680.94 429.972 685.353 457.137C685.406 457.471 685.208 457.795 684.886 457.897C680.19 459.39 675.058 460.136 669.522 460.136V460.131ZM573.372 413.318C577.198 416.481 592.642 428.904 612.009 439.879C632.338 451.398 661.238 463.619 683.908 456.765C680.585 436.295 679.58 429.373 679.285 427.186C678.001 427.711 675.328 428.636 671.354 429.171C666.171 429.869 657.685 430.001 646.695 426.667C640.637 424.829 634.871 423.261 629.783 421.877C616.834 418.354 607.48 415.808 604.271 411.959C603.495 410.98 602.834 410.152 602.258 409.436C598.421 404.644 598.347 404.552 597.888 400.677C597.821 400.124 597.748 399.499 597.649 398.76C597.457 397.33 597.351 396.189 597.266 395.272C597.134 393.865 597.048 392.935 596.794 392.59C596.625 392.36 596.167 392.277 595.048 392.277C594.605 392.277 594.156 392.515 593.715 392.98C591.807 394.994 590.609 400.677 590.813 404.41C590.813 404.431 590.813 404.453 590.813 404.475L590.727 406.717C590.716 406.996 590.535 407.241 590.273 407.335L573.372 413.319V413.318Z" fill="#1A1A1A"/>
<path d="M678.813 587.331C686.404 585.605 742.65 585.261 769.219 596.302C771.289 603.893 766.804 623.217 766.804 623.217C766.804 623.217 691.235 632.879 654.658 637.364C618.08 641.851 612.215 633.569 606.348 616.315C582.884 561.795 682.607 528.668 683.987 527.633L735.401 582.844L727.81 585.95L678.811 587.331H678.813Z" fill="#897E7E"/>
<path d="M637.703 639.248C629.311 639.248 623.192 638.044 618.661 635.592C611.335 631.626 608.353 624.327 605.71 616.561C601.036 605.687 600.9 594.847 605.304 584.337C610.991 570.766 624.111 557.768 644.302 545.701C660.252 536.167 675.74 530.147 681.57 527.881C682.57 527.493 683.436 527.157 683.61 527.063C683.886 526.879 684.257 526.922 684.487 527.168L735.901 582.379C736.054 582.543 736.116 582.772 736.068 582.991C736.02 583.21 735.868 583.392 735.66 583.476L728.069 586.583C727.72 586.724 727.321 586.559 727.179 586.21C727.036 585.86 727.203 585.461 727.553 585.32L734.23 582.589L683.825 528.464C683.493 528.602 682.96 528.809 682.066 529.157C676.266 531.412 660.855 537.4 645.004 546.875C625.07 558.79 612.138 571.571 606.565 584.868C602.306 595.03 602.444 605.52 606.977 616.048C606.984 616.065 606.99 616.082 606.995 616.098C612.504 632.3 617.428 641.244 654.575 636.69C689.224 632.44 759.757 623.432 766.243 622.603C766.89 619.679 770.28 603.691 768.644 596.804C754.372 590.97 732.637 588.639 716.861 587.711C698.122 586.608 682.559 587.18 678.966 587.998C678.598 588.083 678.232 587.851 678.148 587.483C678.063 587.116 678.295 586.75 678.662 586.665C686.094 584.976 742.463 584.443 769.482 595.672C769.677 595.753 769.824 595.92 769.879 596.122C771.971 603.792 767.655 622.575 767.469 623.371C767.405 623.649 767.174 623.858 766.89 623.893C766.135 623.991 690.902 633.607 654.74 638.041C648.208 638.842 642.572 639.246 637.701 639.246L637.703 639.248ZM683.603 527.07C683.594 527.078 683.585 527.083 683.579 527.089C683.586 527.083 683.596 527.078 683.603 527.07Z" fill="#1A1A1A"/>
<path d="M629.642 603.375L629.123 618.214L650.862 617.868C650.862 617.868 650.173 604.41 650.689 596.473C639.992 594.747 629.64 603.375 629.64 603.375H629.642Z" fill="#897E7E"/>
<path d="M629.123 618.895C628.94 618.895 628.765 618.822 628.636 618.691C628.506 618.557 628.434 618.377 628.441 618.19L628.96 603.351C628.967 603.156 629.055 602.974 629.204 602.851C629.636 602.491 639.92 594.047 650.799 595.8C651.147 595.856 651.395 596.168 651.373 596.519C650.864 604.325 651.538 617.699 651.546 617.833C651.555 618.019 651.489 618.199 651.362 618.335C651.235 618.471 651.059 618.548 650.875 618.552L629.136 618.897C629.136 618.897 629.129 618.897 629.125 618.897L629.123 618.895ZM630.313 603.713L629.831 617.519L650.147 617.197C650.018 614.401 649.59 603.934 649.97 597.061C640.789 595.927 631.858 602.507 630.313 603.713Z" fill="#1A1A1A"/>
<path d="M751.986 336.151C751.986 336.151 765.53 335.221 765.436 341.432C765.343 347.642 756.627 349.355 756.103 354.015C755.579 358.672 758.505 363.163 766.186 361.189C773.868 359.215 784.223 355.777 783.889 348.359C783.554 340.939 780.192 338.088 784.17 331.365C788.147 324.641 785.227 315.234 773.934 309.095C769.105 306.931 767.041 302.702 764.718 298.471C762.395 294.242 759.897 291.823 753.425 292.675C746.953 293.53 746.429 298.101 743.064 299.476C735.043 298.603 729.346 300.234 726.404 306.873C723.461 313.512 735.625 313.355 735.625 313.355C735.625 313.355 735.945 331.989 751.986 336.151Z" fill="#161A23"/>
<path d="M731.953 508.396L728.071 514.607C728.071 514.607 751.276 522.457 766.631 518.661C781.986 514.866 783.332 510.615 783.332 510.615L783.885 505.205L742.305 504.86L731.953 508.396Z" fill="#161A23"/>
<path d="M734.022 426.186C731.262 429.981 702.621 449.65 683.643 460.864C672.257 451.72 673.81 426.529 673.81 426.529C673.81 426.529 718.84 389.263 738.682 384.431C758.524 379.6 789.234 381.843 791.476 409.792C793.718 437.741 783.885 505.203 783.885 505.203C783.885 505.203 754.899 515.209 730.572 512.794C712.111 501.58 706.762 498.128 706.762 498.128C706.762 498.128 703.123 470.168 701.605 450.354L734.022 426.182V426.186Z" fill="#B68E57"/>
<path d="M738.48 513.85C735.802 513.85 733.127 513.736 730.506 513.475C730.405 513.465 730.306 513.432 730.219 513.379C711.962 502.288 706.448 498.739 706.395 498.704C706.226 498.596 706.113 498.417 706.088 498.219C706.051 497.941 702.485 470.45 700.961 450.871C694.942 454.777 689.001 458.491 683.993 461.452C683.748 461.598 683.439 461.576 683.217 461.397C678.353 457.491 675.179 450.415 673.78 440.363C672.747 432.941 673.124 426.552 673.128 426.489C673.139 426.3 673.229 426.125 673.374 426.006C673.486 425.912 684.807 416.562 698.405 406.741C716.708 393.524 730.205 385.795 738.52 383.771C745.639 382.038 753.392 381.387 760.349 381.938C768.743 382.604 775.695 384.89 781.01 388.734C787.673 393.551 791.425 400.62 792.156 409.743C794.38 437.449 784.659 504.63 784.559 505.306C784.523 505.558 784.348 505.77 784.107 505.852C784.034 505.878 776.704 508.392 766.493 510.576C759.014 512.175 748.725 513.853 738.478 513.853L738.48 513.85ZM730.795 512.131C753.138 514.3 779.735 505.856 783.269 504.691C784.087 498.967 792.915 436.266 790.796 409.849C790.098 401.142 786.535 394.41 780.211 389.838C768.909 381.668 751.431 382.032 738.844 385.096C720.108 389.658 677.997 423.976 674.477 426.866C674.358 429.66 673.758 451.514 683.71 460.032C702.625 448.816 730.835 429.41 733.471 425.783C733.693 425.478 734.12 425.41 734.425 425.633C734.73 425.855 734.798 426.281 734.576 426.586C732.473 429.478 717.274 440.238 702.217 450.053C702.255 450.13 702.279 450.215 702.287 450.305C703.7 468.749 706.996 494.583 707.4 497.726C708.685 498.544 714.842 502.439 730.795 512.131Z" fill="#1A1A1A"/>
<path d="M730.572 512.796C696.756 484.501 642.581 469.317 619.117 479.325C595.652 489.332 605.659 537.987 627.399 605.274C642.927 609.069 655.348 600.098 655.348 600.098L652.933 541.437C652.933 541.437 690.2 590.092 737.474 587.675C784.749 585.259 777.156 557.654 779.573 545.921C781.988 534.189 783.334 510.614 783.334 510.614C783.334 510.614 750.414 523.321 730.574 512.796H730.572Z" fill="#897E7E"/>
<path d="M635.167 606.884C632.667 606.884 630.002 606.612 627.236 605.936C627.006 605.879 626.82 605.708 626.748 605.482C614.202 566.644 607.686 540.554 605.627 520.887C603.161 497.342 607.486 483.54 618.849 478.695C630.336 473.797 649.402 474.651 671.156 481.04C693.196 487.514 714.988 498.879 730.957 512.225C741.022 517.531 754.614 516.654 764.253 514.982C774.779 513.155 783.006 510.008 783.089 509.975C783.306 509.89 783.55 509.923 783.736 510.059C783.924 510.195 784.028 510.418 784.015 510.649C784.003 510.886 782.639 534.41 780.242 546.056C779.86 547.908 779.731 550.256 779.593 552.739C779.22 559.451 778.759 567.807 773.311 574.81C766.927 583.019 755.217 587.447 737.511 588.353C726.628 588.908 715.372 586.803 704.06 582.096C695.032 578.337 685.946 572.921 677.058 565.997C665.173 556.738 656.791 547.19 653.702 543.468L656.032 600.065C656.041 600.295 655.935 600.511 655.749 600.646C655.619 600.739 652.505 602.967 647.423 604.748C644.317 605.836 640.063 606.88 635.167 606.88V606.884ZM627.93 604.699C635.621 606.481 642.49 605.029 646.927 603.48C650.963 602.07 653.766 600.333 654.652 599.747L652.251 541.464C652.239 541.166 652.42 540.896 652.702 540.793C652.981 540.692 653.295 540.784 653.476 541.019C653.569 541.141 662.932 553.27 677.923 564.942C691.718 575.683 713.241 588.228 737.439 586.991C754.724 586.108 766.106 581.85 772.232 573.974C777.417 567.307 777.867 559.188 778.229 552.665C778.369 550.129 778.503 547.734 778.904 545.782C780.995 535.627 782.297 516.29 782.589 511.611C780.075 512.502 773.035 514.842 764.512 516.322C758.244 517.411 752.405 517.832 747.155 517.573C740.555 517.25 734.87 515.844 730.254 513.395C730.212 513.373 730.174 513.346 730.137 513.316C714.302 500.068 692.665 488.78 670.773 482.349C649.32 476.046 630.59 475.171 619.387 479.95C608.647 484.531 604.593 497.875 606.988 520.746C609.032 540.251 615.492 566.157 627.932 604.697L627.93 604.699Z" fill="#1A1A1A"/>
<path d="M654.314 633.914C654.314 640.47 646.55 643.575 646.55 643.575H587.541C587.541 643.575 586.161 641.503 585.301 638.397C584.437 635.293 582.711 632.012 589.96 630.115C590.072 630.085 590.184 630.054 590.306 630.017C595.721 628.426 610.927 620.388 619.652 615.66C623.449 613.6 626.019 612.17 626.019 612.17C635.853 618.555 652.932 614.414 652.932 614.414C652.932 614.414 654.314 627.356 654.314 633.912V633.914Z" fill="#161A23"/>
<path d="M619.652 615.665C616.886 617.163 613.469 618.993 609.919 620.848L621.251 627.891L629.316 622.664C626.256 620.453 622.699 617.879 619.652 615.666V615.665Z" fill="#B68E57"/>
<path d="M621.251 628.572C621.126 628.572 621.001 628.537 620.891 628.469L609.559 621.425C609.352 621.297 609.228 621.065 609.238 620.821C609.247 620.576 609.386 620.354 609.603 620.242C612.625 618.665 615.897 616.922 619.327 615.064C619.558 614.939 619.839 614.957 620.053 615.112C622.596 616.959 625.848 619.313 629.715 622.107C629.897 622.24 630.004 622.453 629.998 622.677C629.993 622.903 629.877 623.111 629.688 623.232L621.622 628.459C621.51 628.533 621.38 628.57 621.251 628.57V628.572ZM611.294 620.898L621.244 627.081L628.109 622.631C624.764 620.214 621.907 618.144 619.599 616.47C616.694 618.041 613.908 619.527 611.294 620.898Z" fill="#1A1A1A"/>
<path d="M841.684 634.087C840.822 631.326 803.21 590.781 801.657 589.229C800.104 587.676 796.308 587.849 790.787 590.783C789.677 591.373 787.783 592.005 785.471 592.637C788.984 598.1 792.426 605.033 793.213 612.062C793.739 616.758 794.071 620.809 794.281 624.178C795.143 624.575 795.994 625.001 796.827 625.463C811.492 633.572 827.02 643.06 827.02 643.06L836.51 643.579C836.51 643.579 842.548 636.849 841.686 634.089L841.684 634.087Z" fill="#161A23"/>
<path d="M798.032 628.76C800.464 630.755 803.451 633.227 806.508 635.815L808.748 622.662L800.861 617.168C799.97 620.839 798.931 625.101 798.032 628.759V628.76Z" fill="#B68E57"/>
<path d="M806.508 636.497C806.348 636.497 806.192 636.442 806.067 636.335C803.464 634.133 800.615 631.762 797.599 629.288C797.395 629.121 797.306 628.853 797.369 628.597C798.134 625.487 799.084 621.587 800.196 617.006C800.249 616.788 800.407 616.609 800.617 616.529C800.826 616.449 801.063 616.477 801.249 616.608L809.136 622.1C809.353 622.25 809.463 622.513 809.419 622.774L807.179 635.927C807.138 636.168 806.969 636.37 806.739 636.455C806.664 636.482 806.583 636.497 806.506 636.497H806.508ZM798.799 628.505C801.35 630.599 803.778 632.619 806.035 634.521L808.002 622.975L801.289 618.299C800.326 622.263 799.49 625.691 798.799 628.505Z" fill="#1A1A1A"/>
<path d="M736.859 379.666L736.64 385.013L773.381 385.429C768.447 376.22 768.958 372.923 768.958 372.923C768.958 372.923 739.623 376.45 736.859 379.666Z" fill="#897E7E"/>
<path d="M773.381 386.111H773.373L736.633 385.695C736.449 385.693 736.272 385.616 736.146 385.482C736.019 385.348 735.951 385.168 735.958 384.984L736.177 379.637C736.182 379.483 736.241 379.336 736.34 379.22C736.807 378.676 738.23 377.021 753.833 374.413C761.441 373.141 768.804 372.252 768.877 372.243C769.089 372.217 769.302 372.292 769.449 372.447C769.598 372.601 769.666 372.814 769.633 373.026C769.631 373.048 769.286 376.338 773.982 385.103C774.096 385.317 774.088 385.574 773.963 385.78C773.84 385.984 773.618 386.109 773.379 386.109L773.381 386.111ZM737.351 384.339L772.243 384.732C769.052 378.556 768.394 375.156 768.284 373.693C757.25 375.051 740.042 377.83 737.531 379.96L737.353 384.339H737.351Z" fill="#1A1A1A"/>
<path d="M734.066 159.88H717.675L719.393 140.73H732.348L734.066 159.88Z" fill="#161A23"/>
<path d="M797.391 190.893H777.446L779.536 167.589H795.301L797.391 190.893Z" fill="#161A23"/>
<path d="M904.95 644.948H278.988C278.611 644.948 278.306 644.643 278.306 644.266C278.306 643.89 278.611 643.584 278.988 643.584H904.95C905.326 643.584 905.631 643.89 905.631 644.266C905.631 644.643 905.326 644.948 904.95 644.948Z" fill="#1A1A1A"/>
<path d="M787.419 222.596C798.638 222.596 807.732 213.854 807.732 203.071C807.732 192.287 798.638 183.545 787.419 183.545C776.201 183.545 767.107 192.287 767.107 203.071C767.107 213.854 776.201 222.596 787.419 222.596Z" fill="#B68E57"/>
<path d="M725.871 185.935C735.09 185.935 742.564 178.75 742.564 169.888C742.564 161.026 735.09 153.842 725.871 153.842C716.651 153.842 709.177 161.026 709.177 169.888C709.177 178.75 716.651 185.935 725.871 185.935Z" fill="#535353"/>
<path d="M524.56 596.245C535.799 596.245 544.909 587.135 544.909 575.896C544.909 564.658 535.799 555.547 524.56 555.547C513.322 555.547 504.211 564.658 504.211 575.896C504.211 587.135 513.322 596.245 524.56 596.245Z" fill="#35383F"/>
<path d="M670.178 426.221C670.178 426.221 671.683 460.405 680.855 466.564C691.554 460.386 691.554 459.454 691.554 459.454C691.554 459.454 680.688 423.576 680.688 420.694C673.244 421.864 668.777 423.743 670.18 426.222L670.178 426.221Z" fill="#897E7E"/>
<path d="M680.855 467.246C680.723 467.246 680.589 467.207 680.475 467.13C671.345 461 669.638 429.222 669.503 426.404C669.165 425.717 669.15 425.015 669.467 424.36C670.367 422.497 674.106 421.035 680.579 420.019C680.776 419.988 680.978 420.045 681.129 420.175C681.28 420.306 681.368 420.495 681.368 420.693C681.368 422.734 687.849 444.873 692.205 459.256C692.225 459.32 692.235 459.386 692.235 459.454C692.235 459.757 692.111 460.121 690.624 461.239C688.829 462.59 685.654 464.58 681.195 467.156C681.089 467.216 680.971 467.247 680.853 467.247L680.855 467.246ZM680.098 421.478C672.531 422.745 671.001 424.32 670.696 424.952C670.599 425.153 670.522 425.439 670.772 425.882C670.825 425.976 670.854 426.081 670.86 426.189C670.875 426.524 672.411 459.228 680.894 465.749C688.413 461.391 690.328 459.798 690.799 459.322C689.391 454.67 681.078 427.084 680.096 421.476L680.098 421.478Z" fill="#1A1A1A"/>
<path d="M354.657 300.97C354.466 300.97 354.277 300.891 354.141 300.735C353.892 300.45 353.924 300.02 354.209 299.772C354.247 299.739 358.068 296.425 363.362 292.479C363.665 292.253 364.092 292.315 364.318 292.618C364.544 292.922 364.481 293.348 364.178 293.574C358.929 297.487 355.142 300.77 355.105 300.803C354.977 300.915 354.817 300.97 354.657 300.97ZM373.352 287.113C373.124 287.113 372.901 286.999 372.773 286.792C372.572 286.472 372.67 286.051 372.99 285.851C376.846 283.443 380.34 281.603 383.373 280.381C383.722 280.239 384.121 280.41 384.261 280.759C384.402 281.108 384.231 281.507 383.882 281.647C380.923 282.84 377.5 284.643 373.712 287.009C373.6 287.078 373.475 287.112 373.352 287.112V287.113ZM417.95 283.163C417.608 283.163 417.314 282.908 417.274 282.561C417.23 282.186 417.496 281.847 417.871 281.801C421.158 281.412 424.016 279.82 427.429 276.478C427.699 276.214 428.131 276.219 428.394 276.489C428.659 276.76 428.653 277.192 428.383 277.454C424.738 281.024 421.641 282.73 418.031 283.158C418.003 283.162 417.976 283.163 417.95 283.163ZM406.442 282.026C406.402 282.026 406.361 282.022 406.321 282.015C403.281 281.465 399.496 280.781 394.892 280.235C394.517 280.191 394.25 279.851 394.294 279.476C394.339 279.101 394.679 278.833 395.054 278.879C399.698 279.43 403.505 280.118 406.563 280.669C406.935 280.735 407.181 281.092 407.115 281.463C407.056 281.794 406.767 282.026 406.444 282.026H406.442ZM435.566 268.922C435.415 268.922 435.263 268.873 435.138 268.77C434.844 268.533 434.8 268.102 435.037 267.81C436.22 266.347 437.391 264.867 438.522 263.436C439.816 261.798 441.04 260.252 442.28 258.727C442.517 258.434 442.948 258.39 443.242 258.629C443.534 258.868 443.578 259.298 443.339 259.59C442.104 261.107 440.883 262.651 439.591 264.285C438.457 265.718 437.285 267.202 436.097 268.672C435.963 268.84 435.764 268.926 435.566 268.926V268.922ZM503.09 251.437C500.42 251.437 497.641 251.225 494.595 250.79C494.222 250.737 493.963 250.391 494.016 250.018C494.069 249.645 494.417 249.386 494.788 249.439C497.769 249.865 500.484 250.071 503.09 250.071C504.149 250.071 505.202 250.036 506.222 249.966C506.599 249.941 506.924 250.226 506.95 250.601C506.976 250.977 506.691 251.303 506.316 251.328C505.265 251.4 504.178 251.437 503.09 251.437ZM450.636 251.271C450.45 251.271 450.267 251.196 450.132 251.049C449.879 250.77 449.897 250.34 450.177 250.084C453.667 246.899 456.992 244.927 460.339 244.055C460.705 243.96 461.076 244.178 461.172 244.544C461.267 244.91 461.049 245.281 460.683 245.377C457.556 246.191 454.421 248.06 451.097 251.093C450.967 251.213 450.802 251.271 450.638 251.271H450.636ZM517.536 248.783C517.271 248.783 517.021 248.628 516.909 248.371C516.758 248.025 516.918 247.623 517.263 247.472C520.484 246.075 523.605 244.057 526.803 241.304C527.09 241.057 527.52 241.091 527.766 241.375C528.012 241.66 527.979 242.092 527.694 242.339C524.39 245.184 521.155 247.274 517.806 248.726C517.717 248.764 517.626 248.783 517.534 248.783H517.536ZM483.309 248.52C483.258 248.52 483.204 248.514 483.151 248.501C482.298 248.299 481.447 248.095 480.598 247.891C477.72 247.2 474.744 246.485 471.856 245.914C471.487 245.84 471.246 245.482 471.32 245.112C471.393 244.743 471.752 244.502 472.121 244.575C475.036 245.153 478.025 245.869 480.916 246.564C481.763 246.768 482.613 246.972 483.464 247.173C483.831 247.259 484.057 247.627 483.971 247.994C483.897 248.309 483.616 248.52 483.307 248.52H483.309ZM535.359 234.202C535.201 234.202 535.043 234.146 534.914 234.036C534.628 233.79 534.596 233.36 534.841 233.073C536.302 231.375 537.686 229.68 539.024 228.042C540.151 226.664 541.215 225.362 542.261 224.135C542.505 223.848 542.935 223.813 543.224 224.057C543.511 224.302 543.546 224.732 543.301 225.02C542.265 226.237 541.204 227.535 540.083 228.908C538.739 230.551 537.35 232.251 535.877 233.964C535.743 234.121 535.552 234.202 535.359 234.202ZM551.481 217.696C551.232 217.696 550.993 217.56 550.872 217.325C550.701 216.988 550.834 216.578 551.168 216.406C554.954 214.468 558.561 214.062 560.917 214.062C561.562 214.062 562.195 214.091 562.797 214.15C563.172 214.187 563.446 214.522 563.409 214.896C563.373 215.271 563.038 215.547 562.663 215.509C562.104 215.453 561.518 215.426 560.917 215.426C558.71 215.426 555.333 215.806 551.789 217.62C551.69 217.672 551.583 217.696 551.479 217.696H551.481Z" fill="#161A23"/>
<g clip-path="url(#clip0_1397_8054)">
<path d="M601.354 345.286L601.312 345.223C600.465 343.927 599.17 342.988 597.675 342.584C596.181 342.18 594.59 342.339 593.205 343.032C591.82 343.724 590.737 344.901 590.163 346.34C589.59 347.778 589.564 349.376 590.092 350.832C590.438 351.78 591.008 352.63 591.754 353.308L591.843 353.389L591.763 353.478C591.126 354.193 590.746 355.1 590.684 356.056C590.621 357.011 590.88 357.961 591.419 358.752C591.957 359.544 592.745 360.133 593.657 360.426C594.569 360.719 595.552 360.698 596.451 360.368L596.452 360.368L601.248 358.612L600.778 357.328L595.982 359.084L595.982 359.084L595.94 358.97C595.297 359.208 594.59 359.202 593.952 358.954C593.313 358.707 592.787 358.234 592.472 357.626C592.158 357.017 592.077 356.315 592.244 355.65C592.411 354.986 592.816 354.406 593.381 354.019L601.354 345.286ZM601.354 345.286L601.428 345.276C602.831 345.099 604.252 345.398 605.464 346.125C606.676 346.852 607.609 347.965 608.112 349.286C608.616 350.606 608.661 352.058 608.241 353.407C607.836 354.707 607.022 355.84 605.922 356.637L605.428 355.288C606.251 354.588 606.822 353.636 607.052 352.578C607.288 351.492 607.152 350.359 606.664 349.361C606.177 348.362 605.367 347.557 604.365 347.076C603.364 346.595 602.23 346.465 601.146 346.708L600.637 346.822L600.394 346.359L600.394 346.358C599.804 345.258 598.82 344.421 597.639 344.016C596.458 343.611 595.168 343.668 594.027 344.174C592.886 344.681 591.979 345.6 591.487 346.747C590.995 347.895 590.955 349.186 591.376 350.361L591.376 350.362C591.739 351.356 592.414 352.206 593.301 352.785C593.301 352.785 593.301 352.785 593.301 352.785L594.148 353.344L593.313 353.919C593.313 353.919 593.313 353.919 593.312 353.92L601.354 345.286Z" fill="#161A23" stroke="#535353" stroke-width="0.241319"/>
<path d="M602.214 351.889L604.547 358.262L603.262 358.732L600.93 352.359L600.83 352.086L600.707 352.35L599.66 354.607L598.42 354.031L599.946 350.743C599.946 350.743 599.946 350.743 599.946 350.743C600.112 350.385 600.414 350.107 600.784 349.972C601.155 349.836 601.564 349.853 601.922 350.019C601.922 350.019 601.922 350.019 601.922 350.019L605.211 351.546L604.635 352.786L602.378 351.738L602.114 351.616L602.214 351.889Z" fill="#161A23" stroke="#535353" stroke-width="0.241319"/>
</g>
<rect x="551.767" y="335.48" width="73.6317" height="60.2371" transform="rotate(-19.7818 551.767 335.48)" stroke="#161A23" stroke-width="1.04572" stroke-dasharray="2.41 2.41"/>
<defs>
<clipPath id="clip0_1397_8054">
<rect width="19.3055" height="19.3055" fill="white" transform="translate(585.98 344.627) rotate(-20.1029)"/>
</clipPath>
</defs>
</svg>
