<svg viewBox="0 0 911 650" fill="none" xmlns="http://www.w3.org/2000/svg">
<path d="M258.523 283.424H352.503C352.503 283.424 330.202 260.08 302.44 270.88C288.367 241.756 274.207 259.314 279.55 274.359C265.283 255.651 251.452 276.35 258.523 283.424Z" fill="#35383F"/>
<path d="M335.589 292.523C335.589 292.523 300.974 283.266 296.604 291.581C292.233 299.896 335.589 292.523 335.589 292.523Z" fill="#35383F"/>
<path d="M705.806 517.61C705.806 517.61 709.251 513.136 705.712 508.271C699.396 499.589 688.172 497.517 684.779 502.327C681.384 507.139 697.887 519.686 705.808 517.61H705.806Z" fill="#222A38"/>
<path d="M703.889 518.499C697.512 518.499 688.482 512.482 685.154 507.677C683.123 504.746 683.535 502.942 684.239 501.945C685.504 500.151 687.771 499.152 690.624 499.133C693.177 499.111 696.045 499.888 698.72 501.312C701.652 502.871 704.253 505.142 706.245 507.88C710.033 513.084 706.365 517.962 706.328 518.012C706.239 518.127 706.113 518.211 705.973 518.248C705.323 518.419 704.623 518.499 703.889 518.499ZM690.711 500.453C690.685 500.453 690.66 500.453 690.633 500.453C688.219 500.471 686.33 501.271 685.317 502.707C684.44 503.952 685.518 505.884 686.239 506.925C689.978 512.32 700.025 518.198 705.411 517.025C705.976 516.177 708.03 512.578 705.179 508.658C701.048 502.983 694.954 500.453 690.711 500.453Z" fill="#000206"/>
<path d="M714.97 507.656C714.97 507.656 720.7 508.372 725.283 502.21C729.867 496.047 735.883 478.992 731.299 475.983C726.715 472.973 716.114 485.155 712.964 492.894C709.812 500.633 714.97 507.656 714.97 507.656Z" fill="#222A38"/>
<path d="M715.569 508.344C715.176 508.344 714.934 508.317 714.888 508.31C714.709 508.287 714.545 508.193 714.439 508.045C714.218 507.746 709.1 500.633 712.353 492.643C715.025 486.082 722.597 476.806 727.994 475.126C729.437 474.676 730.672 474.779 731.663 475.43C732.582 476.032 733.181 477.092 733.444 478.578C734.529 484.717 729.604 497.508 725.815 502.602C721.938 507.814 717.294 508.342 715.569 508.342V508.344ZM715.336 507.019C716.507 507.064 720.989 506.877 724.754 501.815C728.325 497.014 733.156 484.538 732.143 478.809C731.946 477.696 731.541 476.93 730.938 476.535C730.294 476.112 729.435 476.063 728.387 476.39C723.46 477.922 716.126 486.884 713.577 493.144C710.919 499.673 714.502 505.747 715.338 507.021L715.336 507.019Z" fill="#000206"/>
<path d="M716.116 530.013C716.116 530.013 722.849 528.867 728.865 523.134C734.881 517.402 754.506 507.8 755.08 501.349C755.654 494.901 747.2 494.326 740.755 495.331C734.309 496.333 710.816 519.121 716.116 530.013Z" fill="#222A38"/>
<path d="M716.116 530.673C715.867 530.673 715.634 530.531 715.522 530.301C713.966 527.105 714.559 522.839 717.287 517.622C722.949 506.785 735.995 495.404 740.653 494.678C743.562 494.225 750.691 493.514 754.074 496.683C755.35 497.88 755.91 499.469 755.737 501.408C755.337 505.91 747.129 511.302 739.189 516.517C735.178 519.151 731.39 521.64 729.32 523.613C723.228 529.418 716.51 530.616 716.226 530.664C716.189 530.671 716.151 530.673 716.116 530.673ZM745.61 495.59C744.146 495.59 742.549 495.72 740.856 495.983C736.549 496.653 723.855 507.901 718.456 518.234C716.109 522.727 715.439 526.521 716.503 529.254C718.145 528.863 723.548 527.288 728.408 522.656C730.565 520.601 734.401 518.081 738.464 515.413C745.42 510.843 754.078 505.157 754.421 501.293C754.557 499.757 754.149 498.564 753.17 497.649C751.731 496.301 749.039 495.592 745.608 495.592L745.61 495.59Z" fill="#000206"/>
<path d="M724.802 538.09C724.802 538.09 745.152 548.56 757.709 538.904C770.269 529.249 769.453 530.644 770.036 527.852C770.617 525.059 757.013 519.011 744.686 522.151C732.36 525.292 724.802 538.09 724.802 538.09Z" fill="#222A38"/>
<path d="M744.319 543.647C741.835 543.647 739.191 543.353 736.411 542.765C729.745 541.352 724.711 538.787 724.502 538.679C724.34 538.595 724.219 538.449 724.169 538.275C724.12 538.101 724.143 537.913 724.235 537.756C724.313 537.623 726.204 534.45 729.647 530.845C732.836 527.505 738.006 523.175 744.525 521.515C755.261 518.78 766.614 522.839 769.689 525.783C770.494 526.553 770.828 527.296 770.684 527.991C770.656 528.122 770.633 528.245 770.61 528.36C770.222 530.31 770.13 530.38 765.257 534.023C763.567 535.287 761.254 537.017 758.114 539.431C754.474 542.228 749.789 543.649 744.32 543.649L744.319 543.647ZM725.756 537.818C727.327 538.551 731.567 540.392 736.713 541.48C742.641 542.731 751.027 543.211 757.308 538.382C760.456 535.961 762.773 534.228 764.464 532.964C767.505 530.69 769.121 529.069 769.313 528.101C769.336 527.982 769.361 527.855 769.389 527.72C769.421 527.569 769.279 527.219 768.774 526.737C765.964 524.046 754.972 520.216 744.848 522.795C734.451 525.445 727.43 535.268 725.754 537.82L725.756 537.818Z" fill="#000206"/>
<path d="M705.898 564.973C705.882 564.973 705.866 564.973 705.848 564.971C705.484 564.945 705.212 564.628 705.239 564.264C706.03 553.547 708.597 543.533 712.87 534.5C716.29 527.269 720.803 520.649 726.284 514.823C735.622 504.895 744.686 500.649 744.775 500.606C745.106 500.453 745.498 500.597 745.651 500.93C745.804 501.26 745.66 501.653 745.328 501.806C745.239 501.847 736.37 506.012 727.202 515.772C718.754 524.766 708.313 540.499 706.554 564.363C706.529 564.71 706.239 564.975 705.896 564.975L705.898 564.973Z" fill="#000206"/>
<path d="M709.24 560.483C709.162 560.483 709.082 560.469 709.004 560.439C708.663 560.307 708.494 559.925 708.625 559.586C711.934 550.983 716.732 543.961 722.892 538.718C727.824 534.519 733.628 531.45 740.145 529.592C751.225 526.435 760.389 527.864 760.772 527.927C761.131 527.985 761.376 528.325 761.318 528.684C761.259 529.043 760.922 529.288 760.561 529.229C760.469 529.215 751.26 527.784 740.456 530.875C730.521 533.718 717.15 541.087 709.857 560.058C709.755 560.322 709.505 560.481 709.24 560.481V560.483Z" fill="#000206"/>
<path d="M709.043 547.762C708.705 547.762 708.418 547.504 708.386 547.161C706.746 528.817 711.513 512.331 715.8 501.73C720.444 490.245 725.555 482.984 725.605 482.911C725.817 482.615 726.229 482.543 726.525 482.755C726.822 482.966 726.893 483.377 726.682 483.676C726.632 483.747 721.595 490.908 717.008 502.261C712.783 512.72 708.084 528.979 709.699 547.045C709.731 547.408 709.462 547.73 709.1 547.762C709.08 547.762 709.061 547.763 709.041 547.763L709.043 547.762Z" fill="#000206"/>
<path d="M709.611 527.589C709.313 527.589 709.043 527.384 708.97 527.082C707.129 519.384 702.921 514.133 699.712 511.083C696.139 507.686 692.875 506.081 692.321 505.958C691.978 505.933 691.708 505.649 691.708 505.299C691.708 504.949 692.003 504.639 692.367 504.639C693.078 504.639 696.665 506.433 700.391 509.908C703.816 513.106 708.306 518.627 710.253 526.775C710.338 527.13 710.12 527.486 709.764 527.571C709.713 527.583 709.661 527.589 709.61 527.589H709.611ZM692.335 505.958C692.348 505.958 692.358 505.958 692.369 505.958C692.358 505.958 692.346 505.958 692.335 505.958Z" fill="#000206"/>
<path d="M773.841 593.617C773.841 568.194 748.54 547.584 717.329 547.584C686.118 547.584 660.817 568.194 660.817 593.617C660.817 596.698 661.192 599.707 661.901 602.619H772.759C773.468 599.707 773.843 596.698 773.843 593.617H773.841Z" fill="#35383F"/>
<path d="M650.708 572.456C646.229 549.379 616.958 531.561 581.515 531.561C565.996 531.561 551.66 534.978 540.071 540.756C530.815 526.435 514.331 516.902 495.534 516.902C466.574 516.902 443.097 539.526 443.097 567.435C443.097 574.876 444.767 581.941 447.764 588.303C438.671 592.51 431.657 597.624 427.462 603.31H703.055C697.432 585.747 676.167 572.647 650.709 572.455L650.708 572.456Z" fill="#35383F"/>
<path d="M790.608 603.971H302.44C302.076 603.971 301.781 603.676 301.781 603.312C301.781 602.947 302.076 602.652 302.44 602.652H790.608C790.972 602.652 791.267 602.947 791.267 603.312C791.267 603.676 790.972 603.971 790.608 603.971Z" fill="#000206"/>
<path d="M566.796 604.823C566.03 607.578 563.36 609.558 563.36 609.558C563.36 609.558 540.1 606.209 529.363 602.103C518.625 597.995 508.727 589.245 508.727 589.245C509.227 588.361 509.793 587.375 510.403 586.321C516.602 589.959 531.067 598.029 539.904 599.579C547.917 600.989 560.142 603.458 566.798 604.823H566.796Z" fill="#222A38"/>
<path d="M563.36 610.219C563.328 610.219 563.298 610.218 563.266 610.212C563.033 610.178 539.808 606.805 529.127 602.72C518.401 598.618 508.39 589.828 508.29 589.739C508.057 589.533 507.999 589.191 508.153 588.919C508.624 588.086 509.173 587.128 509.832 585.99C509.921 585.837 510.065 585.727 510.236 585.683C510.406 585.638 510.586 585.663 510.738 585.752C516.612 589.2 531.227 597.388 540.02 598.93C548.146 600.359 560.37 602.83 566.933 604.178C567.112 604.215 567.268 604.323 567.363 604.48C567.459 604.636 567.483 604.825 567.435 605.001C566.618 607.939 563.873 610.002 563.756 610.09C563.642 610.175 563.504 610.219 563.363 610.219H563.36ZM509.569 589.099C511.529 590.759 520.306 597.933 529.6 601.488C539.512 605.278 560.494 608.467 563.173 608.865C563.717 608.413 565.2 607.068 565.927 605.32C559.225 603.948 547.604 601.606 539.789 600.232C531.062 598.699 516.911 590.88 510.641 587.227C510.243 587.917 509.889 588.536 509.568 589.099H509.569Z" fill="#000206"/>
<path d="M655.409 463.524C664.809 463.524 672.429 455.9 672.429 446.495C672.429 437.091 664.809 429.467 655.409 429.467C646.009 429.467 638.388 437.091 638.388 446.495C638.388 455.9 646.009 463.524 655.409 463.524Z" fill="#35383F"/>
<path d="M364.476 525.384C381.55 525.384 395.392 511.537 395.392 494.454C395.392 477.372 381.55 463.524 364.476 463.524C347.402 463.524 333.56 477.372 333.56 494.454C333.56 511.537 347.402 525.384 364.476 525.384Z" fill="#35383F"/>
<path d="M328.685 230.691C328.685 230.691 321.07 221.676 319.571 218.334C318.071 214.99 317.562 205.557 318.928 204.19C320.294 202.823 328.685 201.362 328.685 201.362L335.763 202.519C335.763 202.519 341.291 209.999 341.291 211.21C341.291 212.42 342.517 222.771 342.517 222.771L328.685 230.693V230.691Z" fill="#222A38"/>
<path d="M328.685 231.351C328.497 231.351 328.312 231.271 328.181 231.116C327.868 230.744 320.488 221.992 318.967 218.602C318.089 216.647 317.641 213.161 317.513 210.552C317.41 208.456 317.398 204.784 318.459 203.721C319.9 202.28 327.134 200.959 328.57 200.708C328.643 200.696 328.717 200.696 328.79 200.708L335.868 201.865C336.039 201.894 336.19 201.986 336.293 202.125C336.307 202.145 337.698 204.029 339.07 206.035C341.948 210.246 341.948 210.895 341.948 211.208C341.948 212.17 342.829 219.824 343.17 222.692C343.213 223.055 342.955 223.382 342.593 223.427C342.23 223.469 341.904 223.211 341.859 222.849C341.809 222.426 340.637 212.511 340.628 211.222C340.525 210.474 337.863 206.492 335.39 203.127L328.687 202.031C325.51 202.591 320.269 203.78 319.391 204.656C319.08 204.967 318.652 206.826 318.83 210.488C318.983 213.617 319.509 216.59 320.17 218.064C321.614 221.285 329.112 230.176 329.186 230.266C329.421 230.545 329.387 230.961 329.108 231.196C328.984 231.301 328.833 231.352 328.682 231.352L328.685 231.351Z" fill="#000206"/>
<path d="M334.166 223.203C329.79 224.763 322.783 223.647 320.294 221.548L326.018 197.566L338.411 199.818L334.166 223.201V223.203Z" fill="#222A38"/>
<path d="M329.314 224.6C325.528 224.6 321.639 223.546 319.868 222.053C319.677 221.893 319.592 221.637 319.651 221.395L325.375 197.413C325.457 197.072 325.791 196.855 326.136 196.917L338.528 199.169C338.887 199.235 339.125 199.578 339.059 199.937L334.815 223.32C334.772 223.553 334.609 223.745 334.386 223.825C332.876 224.363 331.105 224.6 329.312 224.6H329.314ZM321.035 221.285C323.506 223.018 329.524 223.972 333.587 222.7L337.645 200.349L326.516 198.326L321.035 221.283V221.285Z" fill="#000206"/>
<path d="M353.77 207.488L325.425 199.862L329.279 185.854L357.624 193.479C361.379 199.537 360.095 204.206 353.77 207.488Z" fill="#222A38"/>
<path d="M353.77 208.149C353.713 208.149 353.654 208.142 353.599 208.126L325.254 200.5C325.084 200.454 324.94 200.344 324.853 200.191C324.766 200.038 324.743 199.857 324.789 199.688L328.643 185.68C328.738 185.329 329.101 185.123 329.451 185.217L357.796 192.843C357.958 192.887 358.096 192.99 358.185 193.133C360.155 196.309 360.804 199.192 360.113 201.7C359.423 204.208 357.391 206.354 354.074 208.076C353.98 208.126 353.875 208.151 353.77 208.151V208.149ZM326.237 199.398L353.69 206.784C356.533 205.262 358.265 203.433 358.839 201.35C359.413 199.267 358.86 196.81 357.197 194.05L329.74 186.662L326.239 199.398H326.237Z" fill="#000206"/>
<path d="M627.952 362.322L688.112 569.879C688.112 569.879 670.054 575.723 658.033 575.723C630.083 535.504 616.997 501.922 611.877 484.276C563.518 400.606 568.07 383.529 568.07 383.529L627.952 362.32V362.322Z" fill="#8C193C"/>
<path d="M658.031 576.383C657.815 576.383 657.612 576.276 657.489 576.1C627.091 532.358 615.048 497.551 611.264 484.538C586.286 441.313 575.695 416.195 571.211 402.735C566.299 387.989 567.382 383.542 567.43 383.361C567.487 383.151 567.642 382.98 567.848 382.909L627.73 361.7C627.901 361.64 628.091 361.652 628.253 361.736C628.414 361.819 628.535 361.965 628.585 362.139L688.745 569.696C688.844 570.039 688.654 570.398 688.315 570.508C688.133 570.567 670.019 576.385 658.031 576.385V576.383ZM568.661 384.02C568.535 385.268 568.431 390.359 572.638 402.833C577.154 416.228 587.729 441.174 612.447 483.944C612.474 483.99 612.495 484.04 612.51 484.09C616.242 496.952 628.176 531.526 658.376 575.059C668.912 574.961 684.084 570.435 687.298 569.44L627.514 363.175L568.661 384.018V384.02Z" fill="#000206"/>
<path d="M717.093 241.607L709.029 246.122C709.029 246.122 672.662 263.724 661.187 267.658C649.711 271.591 639.915 266.556 639.915 266.556L638.39 294.359C638.39 294.359 649.496 297.024 662.437 294.212C675.38 291.398 715.746 259.168 715.746 259.168C715.746 259.168 728.22 259.303 734.572 255.635C740.923 251.966 743.516 249.374 743.516 249.374L717.093 241.61V241.607Z" fill="#222A38"/>
<path d="M650.104 296.151C643.148 296.151 638.309 295.019 638.234 295.001C637.923 294.926 637.712 294.642 637.729 294.322L639.254 266.518C639.266 266.294 639.39 266.094 639.584 265.982C639.778 265.871 640.016 265.864 640.215 265.967C640.311 266.015 649.91 270.825 660.972 267.032C672.181 263.189 707.75 246.006 708.723 245.535L716.771 241.029C716.926 240.942 717.111 240.922 717.28 240.972L743.702 248.736C743.926 248.802 744.098 248.982 744.155 249.207C744.212 249.433 744.146 249.673 743.983 249.837C743.875 249.945 741.257 252.533 734.902 256.202C728.885 259.679 717.814 259.826 715.981 259.826H715.974C712.648 262.473 675.21 292.107 662.576 294.854C658.088 295.829 653.798 296.149 650.104 296.149V296.151ZM639.078 293.831C641.435 294.304 651.246 295.968 662.295 293.567C674.94 290.819 714.929 258.973 715.332 258.651C715.451 258.557 715.599 258.504 715.752 258.507C715.872 258.507 728.119 258.598 734.241 255.061C738.429 252.641 740.971 250.686 742.187 249.669L717.173 242.32L709.35 246.699C709.34 246.706 709.327 246.712 709.315 246.717C708.951 246.893 672.781 264.382 661.398 268.283C651.674 271.616 643.241 268.714 640.519 267.56L639.078 293.831Z" fill="#000206"/>
<path d="M588.412 378.243H533.263C533.263 378.243 542.466 434.757 552.707 479.154C534.857 521.344 519.807 561.555 520.857 566.887C535.386 576.642 548.185 571.354 548.185 571.354C548.185 571.354 592.675 512.167 600.497 478.016C603.143 466.468 601.528 447.384 598.726 428.984L588.412 378.243Z" fill="#8C193C"/>
<path d="M539.373 573.445C534.7 573.445 527.812 572.352 520.489 567.435C520.343 567.337 520.244 567.186 520.21 567.014C519.037 561.048 535.859 517.299 552.017 479.093C541.908 435.214 532.705 378.913 532.613 378.35C532.581 378.158 532.636 377.964 532.762 377.817C532.888 377.669 533.071 377.584 533.265 377.584H588.414C588.778 377.584 589.073 377.879 589.073 378.243C589.073 378.608 588.778 378.903 588.414 378.903H534.043C535.185 385.822 543.877 437.925 553.352 479.004C553.384 479.139 553.371 479.282 553.316 479.41C534.562 523.74 521.022 560.801 521.471 566.502C528.717 571.285 535.471 572.199 539.895 572.119C544.126 572.04 547.068 571.061 547.773 570.803C548.979 569.186 559.556 554.934 570.857 537.127C581.867 519.778 595.835 495.414 599.854 477.865C602.105 468.037 601.507 451.624 598.074 429.08C598.019 428.719 598.266 428.383 598.627 428.328C598.985 428.273 599.323 428.52 599.378 428.881C602.836 451.59 603.429 468.17 601.141 478.16C597.079 495.892 583.033 520.402 571.966 537.841C559.991 556.711 548.825 571.598 548.715 571.747C548.644 571.841 548.548 571.916 548.439 571.96C548.304 572.016 545.067 573.331 539.984 573.436C539.785 573.439 539.583 573.443 539.375 573.443L539.373 573.445Z" fill="#000206"/>
<path d="M587.53 253.237C587.53 253.237 648.096 264.559 649.477 267.24C652.209 283.092 648.917 300.82 648.917 300.82C648.917 300.82 610.386 291.997 608.633 290.067C606.879 288.134 587.53 253.239 587.53 253.239V253.237Z" fill="#222A38"/>
<path d="M648.917 301.48C648.867 301.48 648.819 301.475 648.77 301.464C648.674 301.443 639.019 299.23 629.272 296.809C609.374 291.866 608.512 290.916 608.142 290.511C606.357 288.545 587.743 254.986 586.952 253.559C586.828 253.335 586.844 253.059 586.993 252.853C587.142 252.645 587.398 252.544 587.65 252.59C587.801 252.618 602.974 255.459 618.118 258.589C649.056 264.984 649.736 266.305 650.063 266.94C650.093 267 650.114 267.064 650.127 267.13C652.849 282.916 649.599 300.764 649.565 300.943C649.532 301.119 649.429 301.276 649.279 301.375C649.171 301.446 649.045 301.484 648.917 301.484V301.48ZM588.789 254.145C594.592 264.593 607.78 288.143 609.121 289.621C609.48 289.955 612.225 291.215 629.754 295.566C637.943 297.598 646.033 299.477 648.384 300.019C648.938 296.643 651.188 281.309 648.858 267.537C648.125 266.972 643.424 265.153 617.317 259.769C605.017 257.233 592.813 254.906 588.789 254.145Z" fill="#000206"/>
<path d="M609.158 282.013C620.993 316.23 631.692 369.798 631.692 369.798C631.692 369.798 600.389 402.913 533.995 389.585C529.786 383.663 534.18 367.436 532.534 356.886C527.08 321.927 525.991 278.589 525.991 278.589C529.116 259.988 578.03 249.282 593.838 254.342L598.722 255.377L609.16 282.011L609.158 282.013Z" fill="#222A38"/>
<path d="M564.456 393.405C554.627 393.405 544.385 392.346 533.863 390.234C533.698 390.2 533.553 390.106 533.455 389.969C530.864 386.324 531.341 379.29 531.843 371.844C532.193 366.668 532.554 361.316 531.881 356.99C526.483 322.387 525.339 279.041 525.328 278.607C525.328 278.565 525.33 278.524 525.337 278.481C526.176 273.49 530.108 268.82 537.026 264.602C544.593 259.988 555.617 256.133 567.27 254.026C578.344 252.023 588.334 251.904 594.004 253.706L598.854 254.734C599.211 254.808 599.438 255.16 599.362 255.516C599.286 255.871 598.937 256.101 598.58 256.024L593.696 254.99C593.675 254.984 593.654 254.979 593.632 254.972C582.567 251.429 554.02 255.784 537.71 265.729C531.165 269.72 527.443 274.064 526.647 278.637C526.698 280.552 527.894 322.887 533.181 356.785C533.879 361.257 533.512 366.684 533.158 371.931C532.682 378.983 532.231 385.652 534.384 388.99C568.341 395.752 592.833 390.072 607.412 384.107C621.73 378.249 629.546 370.982 630.971 369.581C630.027 364.923 619.723 314.584 608.531 282.226C608.412 281.881 608.595 281.506 608.94 281.385C609.285 281.266 609.66 281.449 609.78 281.794C621.494 315.661 632.23 369.13 632.337 369.667C632.38 369.876 632.316 370.093 632.17 370.25C631.847 370.593 624.061 378.707 607.99 385.298C598.568 389.162 588.254 391.676 577.333 392.771C573.131 393.192 568.834 393.402 564.454 393.402L564.456 393.405Z" fill="#000206"/>
<path d="M551.57 246.925C551.57 246.925 552.572 259.204 555.112 264.138C559.021 271.73 569.917 271.32 576.148 270.025C581.114 268.995 575.203 243.535 575.203 243.535L551.57 246.925Z" fill="#222A38"/>
<path d="M569.123 271.426C567.684 271.426 566.167 271.327 564.648 271.065C559.764 270.228 556.358 267.999 554.526 264.441C551.953 259.446 550.953 247.485 550.912 246.978C550.884 246.63 551.131 246.321 551.476 246.271L575.109 242.881C575.448 242.832 575.768 243.052 575.846 243.386C575.859 243.439 577.09 248.768 577.95 254.581C579.124 262.512 579.065 267.555 577.779 269.569C577.392 270.175 576.887 270.546 576.283 270.672C574.7 271.001 572.081 271.426 569.125 271.426H569.123ZM552.284 247.49C552.527 250.029 553.568 259.7 555.699 263.836C560.021 272.228 573.38 269.926 576.013 269.38C576.26 269.329 576.473 269.158 576.665 268.858C578.842 265.452 576.095 250.5 574.693 244.277L552.282 247.49H552.284Z" fill="#000206"/>
<path d="M566.796 604.823C560.14 603.458 547.913 600.989 539.902 599.579C531.067 598.027 516.6 589.958 510.401 586.321C514.908 578.528 521.777 567.118 521.777 567.118L542.875 573.594C542.875 573.594 566.339 598.776 566.94 602.617C567.061 603.388 566.988 604.129 566.796 604.824V604.823Z" fill="#222A38"/>
<path d="M566.796 605.484C566.751 605.484 566.707 605.48 566.663 605.47C560.107 604.124 547.897 601.655 539.787 600.23C530.783 598.65 516.003 590.373 510.067 586.89C509.754 586.706 509.648 586.303 509.831 585.99C514.288 578.283 521.144 566.891 521.212 566.777C521.368 566.518 521.681 566.397 521.97 566.487L543.068 572.963C543.179 572.997 543.278 573.059 543.358 573.144C543.417 573.206 549.299 579.525 555.178 586.23C567.187 599.926 567.492 601.874 567.592 602.514C567.718 603.324 567.665 604.162 567.432 605C567.352 605.29 567.087 605.484 566.796 605.484ZM511.302 586.083C517.504 589.696 531.493 597.434 540.016 598.93C547.885 600.313 559.595 602.676 566.289 604.046C566.357 603.595 566.357 603.15 566.289 602.718C565.874 600.059 551.891 584.243 542.514 574.173L522.079 567.901C520.807 570.018 515.246 579.287 511.303 586.083H511.302Z" fill="#000206"/>
<path d="M719.847 592.782C713.394 593.968 693.93 597.398 684.575 597.398C676.629 597.398 666.273 596.892 660.815 596.588C661.913 587.704 663.615 575.494 663.615 575.494L685.559 573.16C685.559 573.16 717.024 587.101 719.081 590.398C719.554 591.152 719.779 591.97 719.845 592.78L719.847 592.782Z" fill="#222A38"/>
<path d="M684.574 598.058C676.576 598.058 666.232 597.549 660.78 597.247C660.597 597.236 660.428 597.151 660.311 597.011C660.193 596.87 660.14 596.687 660.161 596.506C661.247 587.72 662.945 575.524 662.963 575.403C663.006 575.103 663.246 574.87 663.548 574.838L685.491 572.504C685.607 572.492 685.722 572.51 685.829 572.558C685.907 572.593 693.797 576.091 701.837 579.948C718.257 587.826 719.301 589.499 719.644 590.05C720.135 590.832 720.424 591.733 720.506 592.729C720.534 593.066 720.302 593.37 719.968 593.433C712.394 594.824 693.781 598.059 684.576 598.059L684.574 598.058ZM661.558 595.967C667.149 596.271 676.94 596.737 684.574 596.737C693.621 596.737 712.555 593.44 719.108 592.245C718.999 591.698 718.804 591.197 718.523 590.749C717.096 588.464 698.029 579.412 685.454 573.836L664.2 576.097C663.876 578.434 662.515 588.301 661.56 595.967H661.558Z" fill="#000206"/>
<path d="M654.261 572.359C654.261 572.359 655.215 579.591 657.575 581.411C674.46 582.693 691.385 569.228 691.385 569.228L687.972 562.113L654.263 572.359H654.261Z" fill="#222A38"/>
<path d="M659.838 582.154C659.069 582.154 658.296 582.126 657.525 582.067C657.397 582.058 657.274 582.01 657.171 581.932C654.67 580.004 653.709 573.212 653.607 572.444C653.565 572.124 653.76 571.82 654.069 571.726L687.778 561.48C688.091 561.384 688.425 561.532 688.565 561.827L691.978 568.942C692.111 569.22 692.035 569.554 691.793 569.744C691.751 569.778 687.437 573.189 681.108 576.388C675.757 579.094 667.915 582.154 659.838 582.154ZM657.834 580.766C666.327 581.347 674.83 578.079 680.488 575.222C685.586 572.648 689.345 569.939 690.557 569.029L687.62 562.909L654.997 572.824C655.341 575.004 656.308 579.374 657.834 580.766Z" fill="#000206"/>
<path d="M519.924 557.204L515.443 568.944C540.565 578.87 547.578 576.868 547.578 576.868L550.529 569.715L519.924 557.204Z" fill="#222A38"/>
<path d="M545.568 577.695C541.903 577.695 533.11 576.633 515.2 569.557C514.864 569.424 514.697 569.045 514.825 568.708L519.305 556.967C519.369 556.802 519.497 556.667 519.659 556.598C519.821 556.528 520.007 556.525 520.171 556.592L550.776 569.104C550.937 569.17 551.067 569.299 551.134 569.461C551.202 569.623 551.202 569.806 551.134 569.968L548.183 577.121C548.107 577.307 547.949 577.448 547.755 577.504C547.672 577.528 547.025 577.696 545.565 577.696L545.568 577.695ZM516.292 568.567C537.568 576.907 545.547 576.49 547.105 576.282L549.665 570.074L520.299 558.069L516.292 568.567Z" fill="#000206"/>
<path d="M565.563 250.48C565.563 250.48 588.301 251.639 585.741 234.278C583.18 216.917 577.454 194.844 554.699 199.683C531.941 204.521 552.091 251.052 552.091 251.052L565.563 250.48Z" fill="#222A38"/>
<path d="M552.092 251.712C551.836 251.712 551.595 251.563 551.486 251.314C551.453 251.235 548.105 243.462 545.696 234.063C542.438 221.35 542.353 211.866 545.444 205.874C547.325 202.223 550.394 199.923 554.562 199.037C561.532 197.555 567.471 198.476 572.213 201.775C581.5 208.234 584.671 222.486 586.396 234.182C587.07 238.747 586.105 242.499 583.532 245.332C577.762 251.687 566.028 251.164 565.533 251.139C565.169 251.122 564.89 250.811 564.907 250.446C564.925 250.082 565.238 249.801 565.6 249.821C565.716 249.826 577.213 250.332 582.559 244.442C584.852 241.916 585.705 238.528 585.092 234.376C583.406 222.943 580.332 209.029 571.461 202.859C567.03 199.779 561.438 198.927 554.839 200.33C551.078 201.13 548.311 203.199 546.62 206.48C539.577 220.138 552.568 250.485 552.7 250.791C552.846 251.125 552.691 251.515 552.357 251.66C552.272 251.698 552.183 251.715 552.096 251.715L552.092 251.712Z" fill="#000206"/>
<path d="M561.811 222.237C561.811 222.237 570.628 218.252 570.841 215.406C575.393 213.414 580.514 215.477 585.208 212.276C583.5 203.881 578.451 200.609 576.461 199.754C574.182 198.776 565.367 194.418 551.785 199.043C538.202 203.668 539.197 218.823 541.473 225.936C543.749 233.052 545.954 241.731 547.73 243.724C547.73 243.724 553.49 241.233 554.985 238.245C556.479 235.257 552.353 228.142 552.851 226.007C553.348 223.873 560.034 224.799 561.455 228.924C564.086 230.561 563.731 228.284 563.731 228.284L561.811 222.237Z" fill="#000206"/>
<path d="M675.69 225.142L656.285 246.582L663.887 255.633L683.294 234.191L675.69 225.142Z" fill="#000206"/>
<path d="M728.476 250.763C773.158 250.763 809.38 214.524 809.38 169.821C809.38 125.118 773.158 88.8787 728.476 88.8787C683.794 88.8787 647.572 125.118 647.572 169.821C647.572 214.524 683.794 250.763 728.476 250.763Z" fill="#222A38"/>
<path d="M728.609 251.429C726.227 251.429 723.836 251.326 721.435 251.118C710.466 250.167 700.01 247.096 690.358 241.987C681.036 237.053 672.854 230.439 666.037 222.326C659.222 214.214 654.116 205.012 650.861 194.976C647.492 184.585 646.265 173.752 647.215 162.776C648.166 151.802 651.236 141.342 656.342 131.684C661.274 122.358 667.885 114.172 675.995 107.352C684.104 100.534 693.302 95.4252 703.333 92.1688C713.719 88.7986 724.546 87.5704 735.517 88.5213C746.486 89.4723 756.942 92.5438 766.595 97.6524C775.917 102.587 784.098 109.201 790.915 117.313C797.731 125.426 802.837 134.628 806.092 144.664C809.46 155.055 810.688 165.887 809.737 176.863C808.787 187.837 805.717 198.298 800.611 207.955C795.679 217.282 789.068 225.467 780.959 232.287C772.85 239.106 763.652 244.214 753.621 247.471C745.507 250.105 737.121 251.429 728.611 251.429H728.609ZM728.418 89.5345C687.274 89.5345 652.149 121.131 648.532 162.89C644.712 206.992 677.468 245.981 721.549 249.803C765.632 253.624 804.601 220.853 808.421 176.751C812.241 132.648 779.484 93.6601 735.403 89.8385C733.06 89.6358 730.727 89.5363 728.416 89.5363L728.418 89.5345Z" fill="#000206"/>
<path d="M797.043 175.765C796.24 185.029 793.649 193.856 789.346 201.995C785.816 208.672 781.261 214.66 775.778 219.838C774.801 220.762 773.793 221.658 772.759 222.529C765.912 228.288 758.15 232.599 749.688 235.347C740.934 238.189 731.797 239.223 722.535 238.42C713.275 237.616 704.452 235.027 696.317 230.72C691.564 228.205 687.163 225.172 683.153 221.649C680.527 219.347 678.068 216.834 675.792 214.123C670.036 207.273 665.728 199.507 662.981 191.041C660.14 182.283 659.106 173.141 659.909 163.877C660.712 154.611 663.301 145.784 667.606 137.645C671.767 129.776 677.345 122.868 684.194 117.111C691.042 111.352 698.804 107.041 707.266 104.295C716.02 101.455 725.157 100.418 734.417 101.222C743.679 102.025 752.502 104.617 760.637 108.922C768.502 113.085 775.407 118.666 781.161 125.518C786.916 132.369 791.226 140.135 793.973 148.601C796.812 157.359 797.848 166.5 797.045 175.767L797.043 175.765Z" fill="#222A38"/>
<path d="M728.599 239.342C726.566 239.342 724.525 239.253 722.476 239.076C713.126 238.265 704.219 235.649 696.007 231.301C691.228 228.772 686.756 225.691 682.718 222.143C680.074 219.827 677.575 217.271 675.286 214.546C669.477 207.634 665.125 199.793 662.354 191.243C659.486 182.402 658.442 173.175 659.252 163.818C660.062 154.461 662.677 145.553 667.023 137.335C671.225 129.39 676.859 122.415 683.77 116.604C690.679 110.792 698.516 106.439 707.062 103.666C715.904 100.797 725.127 99.7517 734.474 100.562C743.823 101.373 752.729 103.987 760.945 108.337C768.886 112.541 775.858 118.177 781.666 125.092C787.476 132.008 791.828 139.849 794.598 148.395C797.466 157.24 798.51 166.468 797.7 175.82C796.89 185.171 794.277 194.08 789.929 202.301C786.372 209.029 781.764 215.088 776.229 220.314C775.257 221.233 774.232 222.147 773.182 223.03C766.273 228.843 758.436 233.196 749.89 235.969C742.988 238.21 735.849 239.337 728.599 239.337V239.342ZM728.359 101.618C721.247 101.618 714.245 102.724 707.471 104.922C699.086 107.644 691.399 111.915 684.619 117.617C677.837 123.318 672.31 130.159 668.188 137.956C663.926 146.015 661.361 154.756 660.567 163.935C659.772 173.114 660.796 182.165 663.608 190.838C666.328 199.224 670.596 206.917 676.297 213.7C678.543 216.373 680.995 218.882 683.589 221.153C687.551 224.634 691.937 227.655 696.626 230.137C704.681 234.401 713.417 236.968 722.592 237.762C731.766 238.557 740.815 237.533 749.483 234.719C757.867 231.998 765.555 227.728 772.335 222.024C773.365 221.157 774.373 220.261 775.325 219.358C780.754 214.232 785.274 208.286 788.764 201.686C793.026 193.623 795.591 184.882 796.386 175.708C797.18 166.532 796.156 157.48 793.344 148.804C790.626 140.419 786.356 132.728 780.655 125.941C774.957 119.157 768.117 113.627 760.326 109.505C752.267 105.241 743.53 102.674 734.359 101.879C732.351 101.705 730.349 101.618 728.357 101.618H728.359Z" fill="#000206"/>
<path d="M710.889 150.336C705.054 152.177 701.595 158.917 703.786 165.087C713.088 166.877 727.868 159.605 727.868 159.605C727.868 159.605 728.05 156.018 728.586 152.134L711.71 138.569C712.777 142.182 716.327 148.62 710.891 150.336H710.889Z" fill="#000206"/>
<path d="M775.778 219.838C774.801 220.762 773.794 221.658 772.76 222.529C765.912 228.288 758.15 232.598 749.688 235.346C740.934 238.189 731.797 239.223 722.535 238.42C713.275 237.616 704.452 235.026 696.317 230.719C691.564 228.204 687.163 225.172 683.153 221.649C684.107 212.548 688.1 180.827 698.406 169.088C710.494 155.318 740.602 157.588 748.785 161.363C756.592 164.963 779.763 177.019 775.776 219.839L775.778 219.838Z" fill="#222A38"/>
<path d="M728.599 239.342C726.566 239.342 724.525 239.253 722.476 239.076C713.126 238.265 704.219 235.649 696.008 231.301C691.228 228.771 686.756 225.691 682.718 222.143C682.556 222.001 682.475 221.791 682.498 221.578C683.486 212.155 687.515 180.491 697.912 168.649C704.722 160.891 716.411 158.567 725.017 157.984C735.338 157.284 744.926 158.852 749.064 160.761C751.894 162.065 760.508 166.038 767.243 175.509C775.062 186.503 778.154 201.437 776.435 219.898C776.421 220.058 776.348 220.206 776.231 220.316C775.259 221.235 774.234 222.148 773.182 223.034C766.273 228.846 758.436 233.199 749.89 235.972C742.988 238.214 735.849 239.34 728.599 239.34V239.342ZM683.846 221.377C687.741 224.763 692.038 227.709 696.626 230.135C704.681 234.399 713.417 236.966 722.592 237.76C731.767 238.555 740.815 237.531 749.483 234.717C757.868 231.996 765.555 227.726 772.335 222.022C773.301 221.21 774.245 220.371 775.144 219.527C776.951 199.636 773.76 173.603 748.512 161.961C744.622 160.167 735.098 158.626 725.106 159.303C713.291 160.105 703.985 163.733 698.904 169.522C688.885 180.934 684.884 211.652 683.846 221.375V221.377Z" fill="#000206"/>
<path d="M711.187 160.428C711.187 160.428 713.776 169.851 715.476 172.496C720.659 172.945 725.429 172.904 725.429 172.904L718.754 177.89C718.754 177.89 734.723 199.259 737.18 214.121L739.77 214.345C739.77 214.345 740.764 192.402 737.331 179.614C733.898 166.827 726.285 157.764 726.285 157.764L711.186 160.428H711.187Z" fill="#8C193C"/>
<path d="M739.772 215.006C739.753 215.006 739.735 215.006 739.715 215.005L737.125 214.781C736.825 214.754 736.579 214.528 736.532 214.231C734.128 199.7 718.386 178.5 718.227 178.289C718.122 178.148 718.077 177.972 718.102 177.798C718.127 177.624 718.219 177.469 718.36 177.364L723.461 173.553C721.574 173.521 718.561 173.429 715.419 173.157C715.215 173.139 715.032 173.029 714.922 172.857C713.186 170.156 710.658 160.995 710.551 160.606C710.502 160.426 710.53 160.234 710.629 160.078C710.729 159.922 710.889 159.813 711.072 159.781L726.172 157.117C726.405 157.076 726.641 157.161 726.792 157.343C726.868 157.435 734.54 166.665 737.971 179.447C741.391 192.187 740.442 214.159 740.433 214.379C740.424 214.558 740.344 214.727 740.209 214.846C740.088 214.953 739.934 215.01 739.774 215.01L739.772 215.006ZM737.743 213.508L739.138 213.629C739.268 209.814 739.722 191.067 736.695 179.787C733.682 168.557 727.323 160.131 726.017 158.482L712.021 160.953C712.628 163.082 714.511 169.486 715.867 171.866C720.828 172.277 725.376 172.245 725.424 172.245H725.429C725.712 172.245 725.964 172.426 726.055 172.695C726.145 172.965 726.053 173.264 725.824 173.434L719.674 178.027C722.174 181.449 735.236 199.832 737.743 213.508Z" fill="#000206"/>
<path d="M758.333 144.191C758.333 144.191 756.185 149.342 759.722 155.666C763.26 161.991 760.593 165.281 755.24 165.498C745.923 162.986 744.969 162.222 744.969 162.222L748.732 148.923L758.335 144.191H758.333Z" fill="#000206"/>
<path d="M748.298 160.468C748.298 160.468 740.328 193.085 739.772 214.347L742.388 213.855C742.388 213.855 752.01 189.254 758.093 181.908C755.498 179.563 753.364 177.107 753.364 177.107L758.216 176.998C758.216 176.998 760.497 170.761 760.254 166.577C755.528 162.609 748.298 160.468 748.298 160.468Z" fill="#8C193C"/>
<path d="M739.772 215.007C739.616 215.007 739.465 214.951 739.344 214.848C739.193 214.719 739.108 214.528 739.113 214.328C739.664 193.239 747.577 160.636 747.657 160.309C747.7 160.133 747.813 159.984 747.97 159.893C748.126 159.803 748.313 159.781 748.487 159.833C748.787 159.922 755.903 162.058 760.678 166.068C760.817 166.186 760.902 166.355 760.913 166.536C761.161 170.807 758.932 176.963 758.836 177.222C758.742 177.478 758.502 177.649 758.232 177.656L754.824 177.732C755.684 178.658 757.038 180.061 758.537 181.415C758.8 181.652 758.829 182.053 758.603 182.327C752.657 189.507 743.1 213.848 743.004 214.093C742.92 214.304 742.736 214.459 742.512 214.502L739.897 214.994C739.856 215.001 739.815 215.005 739.774 215.005L739.772 215.007ZM748.775 161.314C747.646 166.07 741.122 194.304 740.458 213.545L741.908 213.272C743.111 210.225 751.436 189.411 757.192 181.977C754.805 179.764 752.886 177.563 752.866 177.539C752.699 177.345 752.657 177.073 752.761 176.838C752.864 176.604 753.094 176.451 753.35 176.445L757.743 176.346C758.223 174.931 759.706 170.265 759.607 166.897C755.871 163.857 750.61 161.929 748.775 161.312V161.314Z" fill="#000206"/>
<path d="M748.256 153.082L747.222 167.64C747.222 167.64 744.486 171.717 737.393 169.741C730.301 167.762 727.188 160.453 727.188 160.453C727.188 160.453 727.305 144.68 727.24 136.272C727.174 127.863 727.733 103.045 744.798 105.205C761.863 107.366 764.066 119.933 763.766 131.263C763.396 145.209 758.308 154.977 748.256 153.084V153.082Z" fill="#222A38"/>
<path d="M741.087 170.948C739.961 170.948 738.674 170.784 737.216 170.377C729.901 168.338 726.712 161.022 726.58 160.713C726.545 160.629 726.527 160.54 726.527 160.45C726.527 160.291 726.644 144.585 726.579 136.277C726.536 130.837 726.874 126.199 727.609 122.1C728.826 115.321 731.097 110.415 734.355 107.519C737.166 105.022 740.707 104.023 744.882 104.551C752.761 105.548 758.31 108.888 761.373 114.48C764.363 119.937 764.548 126.683 764.425 131.283C764.169 140.952 761.673 148.18 757.398 151.633C755.011 153.562 752.143 154.307 748.863 153.853L747.881 167.691C747.872 167.807 747.835 167.917 747.771 168.013C747.671 168.16 745.731 170.951 741.087 170.951V170.948ZM727.849 160.313C728.284 161.242 731.36 167.373 737.569 169.104C743.421 170.736 746.06 168.025 746.577 167.398L747.597 153.036C747.611 152.847 747.703 152.675 747.852 152.559C748.002 152.444 748.194 152.399 748.378 152.433C751.566 153.034 754.321 152.417 756.569 150.602C760.538 147.398 762.86 140.522 763.105 131.245C763.389 120.547 761.554 107.992 744.715 105.861C740.936 105.383 737.745 106.271 735.231 108.506C731.811 111.547 727.762 118.831 727.899 136.267C727.961 144.155 727.86 158.699 727.849 160.313Z" fill="#000206"/>
<path d="M750.349 102.053C745.074 99.1738 731.457 101.55 725.429 112.61C720.593 113.403 715.119 118.076 717.578 129.871C712.857 130.22 710.827 134.434 711.518 137.824C711.564 138.055 711.63 138.304 711.708 138.569L726.952 156.194C727.423 152.781 729.798 145.08 730.932 143.442C732.706 140.417 727.028 136.972 728.577 130.445C730.127 123.918 731.637 129.196 735.633 128.483C739.628 127.77 739.838 120.559 739.838 120.559C739.838 120.559 745.85 118.847 749.046 116.021C752.243 113.195 755.625 104.933 750.35 102.053H750.349Z" fill="#000206"/>
<path d="M748.801 106.177C748.801 106.177 747.895 114.672 756.226 120.049C764.557 125.426 765.905 119.014 765.905 119.014C765.905 119.014 766.982 107.242 758.589 105.209C750.196 103.175 748.801 106.177 748.801 106.177Z" fill="#000206"/>
<path d="M748.257 153.743C748.206 153.743 748.154 153.738 748.103 153.725L739.207 151.592C738.852 151.507 738.635 151.152 738.719 150.796C738.802 150.441 739.161 150.224 739.515 150.307L748.41 152.44C748.766 152.526 748.982 152.881 748.899 153.237C748.826 153.539 748.556 153.743 748.257 153.743Z" fill="#000206"/>
<path d="M552.604 376.37L546.08 370.431C544.417 368.917 544.296 366.341 545.808 364.677L656.569 242.297C658.083 240.633 660.657 240.512 662.32 242.025L668.844 247.963C670.507 249.478 670.628 252.053 669.116 253.717L558.355 376.098C556.841 377.762 554.267 377.882 552.604 376.37Z" fill="#8C193C"/>
<path d="M555.34 378.089C554.203 378.089 553.064 377.682 552.16 376.859L545.636 370.92C544.701 370.069 544.154 368.906 544.094 367.642C544.033 366.38 544.47 365.17 545.32 364.235L656.079 241.856C657.836 239.924 660.833 239.783 662.763 241.539L669.286 247.478C671.216 249.234 671.358 252.233 669.603 254.163L558.844 376.542C557.911 377.568 556.628 378.089 555.34 378.089ZM659.581 241.628C658.653 241.628 657.727 242.003 657.056 242.743L546.297 365.122C545.682 365.797 545.369 366.67 545.412 367.58C545.455 368.49 545.849 369.329 546.524 369.942L553.048 375.881C554.439 377.147 556.601 377.045 557.866 375.653L668.626 253.274C669.892 251.881 669.789 249.719 668.398 248.454L661.874 242.515C661.222 241.921 660.4 241.628 659.581 241.628Z" fill="#000206"/>
<path d="M757.994 232.653C757.994 232.653 757.985 232.653 757.979 232.653C757.615 232.646 757.326 232.344 757.334 231.98L757.635 218.019C757.642 217.655 757.951 217.369 758.308 217.374C758.672 217.381 758.962 217.683 758.953 218.048L758.653 232.008C758.646 232.367 758.351 232.653 757.994 232.653Z" fill="#000206"/>
<path d="M699.46 232.291C699.405 232.291 699.349 232.284 699.294 232.27C698.941 232.179 698.729 231.818 698.82 231.466L702.073 218.803C702.164 218.449 702.524 218.238 702.876 218.329C703.23 218.419 703.441 218.78 703.351 219.132L700.097 231.795C700.021 232.094 699.753 232.291 699.46 232.291Z" fill="#000206"/>
<path d="M580.43 349.231C584.84 347.176 588.848 344.138 592.254 339.63C592.254 339.63 593.195 345.717 592.767 349.574C592.339 353.431 591.824 359.775 589.425 362.603C587.027 365.431 582.807 365.388 579.378 365.817C575.951 366.245 568.432 366.803 568.432 366.803C568.432 366.803 484.369 367.569 480.095 353.474C474.889 336.308 490.698 319.913 490.698 319.913L519.037 332.449C519.037 332.449 517.216 334.785 515.759 341.129C524.7 343.953 560.377 350.562 567.332 351.422C567.332 351.422 569.889 351.117 572.03 345.973C574.173 340.828 578.371 337.487 580.769 336.372C583.168 335.258 583.768 339.03 582.397 341.086C581.025 343.143 576.914 349.915 580.426 349.229L580.43 349.231Z" fill="#222A38"/>
<path d="M566.316 367.471C560.432 367.471 543.209 367.352 525.821 366.085C513.276 365.171 503.094 363.847 495.559 362.15C485.794 359.951 480.53 357.176 479.466 353.667C477.286 346.479 478.46 338.278 482.863 329.95C486.169 323.695 490.06 319.628 490.225 319.458C490.417 319.259 490.714 319.2 490.968 319.312L519.307 331.849C519.494 331.93 519.631 332.094 519.68 332.291C519.73 332.488 519.686 332.698 519.561 332.858C519.545 332.878 517.918 335.048 516.548 340.681C526.179 343.539 560.217 349.858 567.313 350.756C567.663 350.66 569.669 349.943 571.428 345.72C573.462 340.837 577.555 337.142 580.498 335.775C581.496 335.311 582.429 335.466 583.058 336.2C584.076 337.387 584.026 339.844 582.953 341.454C580.579 345.016 579.385 348.011 579.76 348.573C579.782 348.605 579.924 348.648 580.231 348.598C584.843 346.433 588.606 343.37 591.73 339.234C591.89 339.023 592.16 338.927 592.417 338.992C592.675 339.056 592.868 339.27 592.908 339.531C592.947 339.783 593.858 345.749 593.425 349.648C593.393 349.935 593.361 350.233 593.327 350.544C592.886 354.643 592.282 360.258 589.93 363.031C587.725 365.632 584.186 365.987 581.064 366.3C580.506 366.357 579.979 366.408 579.464 366.474C576.059 366.901 568.56 367.457 568.485 367.463C568.471 367.463 568.457 367.463 568.443 367.463C568.404 367.463 567.652 367.47 566.318 367.47L566.316 367.471ZM490.865 320.709C489.875 321.806 486.704 325.498 484.014 330.597C481.068 336.177 478.108 344.643 480.729 353.283C481.349 355.326 484.474 358.298 495.845 360.859C503.316 362.542 513.432 363.856 525.909 364.766C546.887 366.295 567.626 366.149 568.407 366.144C568.855 366.11 576.017 365.573 579.298 365.162C579.83 365.097 580.364 365.042 580.931 364.985C583.946 364.683 587.062 364.368 588.922 362.174C591.012 359.711 591.614 354.108 592.014 350.4C592.048 350.087 592.08 349.787 592.112 349.499C592.396 346.934 592.051 343.294 591.806 341.259C588.731 344.975 585.087 347.787 580.709 349.828C580.661 349.851 580.609 349.867 580.556 349.878C579.448 350.095 578.913 349.684 578.659 349.304C578.124 348.5 578.378 347.087 579.458 344.856C580.355 343.006 581.517 341.223 581.851 340.72C582.638 339.54 582.621 337.72 582.052 337.057C581.951 336.938 581.713 336.662 581.05 336.97C579.098 337.876 574.826 340.978 572.641 346.225C570.378 351.662 567.531 352.062 567.412 352.076C567.359 352.084 567.306 352.084 567.253 352.076C560.224 351.207 524.399 344.551 515.56 341.758C515.232 341.655 515.038 341.316 515.116 340.981C516.166 336.406 517.41 333.861 518.064 332.741L490.863 320.707L490.865 320.709Z" fill="#000206"/>
<path d="M532.533 324.543C532.533 324.543 528.484 333.608 516.338 340.551C501.686 321.843 480.48 319.914 480.48 319.914L530.148 270.855L532.533 324.543Z" fill="#222A38"/>
<path d="M516.34 341.213C516.143 341.213 515.949 341.124 515.82 340.96C508.342 331.411 499.105 326.376 492.673 323.832C485.709 321.079 480.473 320.578 480.421 320.572C480.165 320.549 479.947 320.38 479.86 320.137C479.773 319.893 479.835 319.625 480.018 319.443L529.687 270.384C529.946 270.129 530.363 270.13 530.619 270.39C530.875 270.649 530.873 271.067 530.614 271.323L481.905 319.435C483.939 319.755 488.072 320.588 493.16 322.6C499.643 325.163 508.908 330.201 516.504 339.691C527.92 332.986 531.893 324.358 531.932 324.269C532.081 323.937 532.472 323.788 532.805 323.937C533.137 324.086 533.286 324.476 533.137 324.808C532.968 325.187 528.86 334.151 516.667 341.12C516.564 341.179 516.452 341.207 516.34 341.207V341.213Z" fill="#000206"/>
<path d="M342.159 225.298L328.685 230.691C328.685 230.691 326.992 247.12 327.22 266.205L350.03 255.359C346.185 238.869 342.159 225.3 342.159 225.3V225.298Z" fill="#222A38"/>
<path d="M327.219 266.865C327.099 266.865 326.976 266.831 326.869 266.765C326.679 266.646 326.562 266.438 326.558 266.213C326.333 247.309 328.01 230.787 328.028 230.624C328.053 230.38 328.211 230.169 328.44 230.078L341.914 224.687C342.087 224.617 342.28 224.625 342.447 224.706C342.614 224.788 342.74 224.934 342.792 225.113C342.833 225.248 346.869 238.891 350.673 255.21C350.744 255.512 350.593 255.823 350.314 255.956L327.504 266.803C327.413 266.845 327.317 266.867 327.221 266.867L327.219 266.865ZM329.302 231.155C329.055 233.724 327.728 248.39 327.868 265.166L349.264 254.991C345.993 241.024 342.584 229.123 341.728 226.183L329.3 231.157L329.302 231.155Z" fill="#000206"/>
<path d="M390.915 243.61C378.306 250.222 360.056 296.512 356.2 280.31C354.774 271.083 352.702 261.172 350.583 252.073L325.645 263.932C325.899 285.14 328.323 309.344 337.067 320.736C354.417 343.333 396.317 294.208 396.317 294.208C396.317 294.208 403.525 236.998 390.916 243.61H390.915Z" fill="#8C193C"/>
<path d="M348.934 327.339C348.778 327.339 348.623 327.337 348.47 327.334C343.616 327.209 339.603 325.124 336.543 321.139C332.491 315.86 329.455 307.445 327.52 296.128C325.985 287.148 325.132 276.318 324.984 263.941C324.981 263.683 325.128 263.447 325.361 263.337L350.298 251.477C350.48 251.392 350.687 251.392 350.869 251.477C351.048 251.564 351.18 251.728 351.226 251.922C353.694 262.507 355.586 272.014 356.849 280.18C357.146 281.412 357.688 282.9 358.601 283.051C359.388 283.181 360.983 282.477 364.123 278.376C366.562 275.191 369.339 270.777 372.281 266.106C378.508 256.218 384.945 245.992 390.609 243.022C392.173 242.202 393.573 242.206 394.767 243.036C396.7 244.378 397.943 247.851 398.569 253.655C399.048 258.106 399.151 263.909 398.876 270.905C398.407 282.79 396.986 294.173 396.971 294.287C396.955 294.414 396.902 294.535 396.819 294.633C396.748 294.717 389.646 303.009 380.223 311.127C374.678 315.904 369.419 319.692 364.597 322.387C358.714 325.672 353.448 327.336 348.936 327.336L348.934 327.339ZM326.308 264.348C326.674 291.842 330.572 311.196 337.588 320.334C340.393 323.989 344.066 325.899 348.502 326.013C356.389 326.212 367.056 320.729 379.347 310.142C388.006 302.683 394.688 295.077 395.685 293.927C397.263 281.281 399.976 248.263 394.013 244.124C393.244 243.589 392.329 243.612 391.22 244.193C385.873 246.998 379.244 257.524 373.397 266.812C366.589 277.626 362.152 284.388 358.784 284.388C358.649 284.388 358.515 284.377 358.384 284.356C357.053 284.135 356.129 282.861 355.557 280.463C355.554 280.445 355.55 280.429 355.547 280.411C354.319 272.477 352.496 263.266 350.122 253.022L326.306 264.346L326.308 264.348Z" fill="#000206"/>
<path d="M395.271 573.352C395.271 573.352 396.428 600.354 394.692 603.054C348.809 605.368 329.145 602.86 329.145 602.86C329.145 602.86 322.783 599.967 329.145 594.181C335.508 588.395 368.28 573.93 368.28 573.93L395.269 573.35L395.271 573.352Z" fill="#000206"/>
<path d="M364.563 340.386C364.563 340.386 364.08 547.346 365.389 573.546C378.114 587.819 396.62 573.74 396.62 573.74C396.62 573.74 411.044 458.942 416.282 417.677C421.52 376.412 414.319 344.318 414.319 344.318L364.563 340.388V340.386Z" fill="#222A38"/>
<path d="M379.306 580.594C373.702 580.594 368.801 578.365 364.897 573.985C364.798 573.873 364.737 573.729 364.73 573.578C363.435 547.66 363.899 342.453 363.904 340.384C363.904 340.201 363.982 340.025 364.117 339.901C364.252 339.776 364.434 339.714 364.617 339.728L414.372 343.658C414.66 343.681 414.902 343.889 414.964 344.172C414.981 344.252 416.787 352.389 417.924 365.465C418.972 377.523 419.652 396.386 416.939 417.759C411.762 458.551 397.421 572.673 397.277 573.82C397.256 573.996 397.163 574.156 397.021 574.262C396.828 574.41 392.222 577.88 385.954 579.629C383.65 580.272 381.427 580.592 379.306 580.592V580.594ZM366.038 573.279C371.105 578.848 377.673 580.562 385.563 578.368C390.847 576.9 395.019 574.074 396.001 573.374C396.804 566.98 410.577 457.39 415.628 417.593C418.325 396.347 417.65 377.596 416.611 365.609C415.637 354.394 414.171 346.845 413.777 344.936L365.222 341.101C365.194 354.455 364.796 547.227 366.038 573.279Z" fill="#000206"/>
<path d="M476.426 587.167C476.426 587.167 480.095 599.792 482.408 604.421C484.721 609.05 512.352 624.203 519.679 621.888C527.004 619.574 530.518 611.458 528.205 609.144C525.892 606.829 510.651 591.403 509.399 590.148C508.146 588.895 499.952 577.031 499.952 577.031L476.426 587.165V587.167Z" fill="#000206"/>
<path d="M403.844 389.511C403.844 389.511 444.961 517.377 460.146 553.915C472.126 582.739 476.513 589.94 476.513 589.94C476.513 589.94 490.916 589.94 501.392 580.116C487.644 502.826 473.894 455.666 471.275 440.601C464.074 375.756 437.886 337.112 437.886 337.112L398.604 339.732L403.842 389.511H403.844Z" fill="#222A38"/>
<path d="M476.515 590.599C476.284 590.599 476.07 590.48 475.951 590.283C475.772 589.988 471.401 582.711 459.538 554.168C444.515 518.022 403.627 390.991 403.216 389.711C403.104 389.365 403.296 388.992 403.643 388.881C403.989 388.769 404.362 388.961 404.472 389.308C404.883 390.586 445.755 517.565 460.757 553.661C471.225 578.85 475.93 587.57 476.889 589.27C479.183 589.179 491.481 588.304 500.679 579.876C491.254 526.958 481.718 487.712 476.017 464.246C473.365 453.332 471.449 445.445 470.627 440.713C470.625 440.701 470.623 440.687 470.621 440.672C466.912 407.275 458.062 380.996 451.291 364.834C444.684 349.062 438.72 339.593 437.549 337.794L398.65 340.389C398.286 340.412 397.972 340.139 397.949 339.774C397.924 339.41 398.199 339.095 398.563 339.072L437.845 336.452C438.08 336.436 438.304 336.546 438.435 336.74C438.501 336.838 445.105 346.66 452.492 364.283C456.827 374.624 460.585 385.598 463.66 396.9C467.503 411.018 470.286 425.688 471.933 440.507C472.75 445.2 474.66 453.06 477.302 463.933C483.021 487.467 492.592 526.858 502.043 579.998C502.083 580.219 502.008 580.443 501.844 580.595C496.33 585.768 489.742 588.212 485.186 589.351C480.254 590.585 476.666 590.599 476.515 590.599Z" fill="#000206"/>
<path d="M392.715 241.973C380.93 250.653 363.908 289.624 364.563 340.386C406.136 348.9 445.091 347.263 445.091 347.263C445.091 347.263 462.767 263.424 449.346 241.154C417.266 231.983 404.499 233.293 392.715 241.973Z" fill="#8C193C"/>
<path d="M437.126 348.04C423.556 348.04 394.543 347.199 364.43 341.031C364.126 340.969 363.906 340.702 363.902 340.393C363.527 311.379 368.831 288.922 373.347 275.191C376.046 266.982 379.274 259.497 382.68 253.544C385.915 247.89 389.25 243.704 392.324 241.441C398.864 236.626 405.165 234.463 413.399 234.211C422.179 233.942 433.32 235.887 449.527 240.519C449.687 240.565 449.826 240.67 449.911 240.812C453.032 245.992 454.745 254.842 455.003 267.114C455.207 276.869 454.502 288.819 452.906 302.635C450.193 326.138 445.78 347.19 445.736 347.4C445.673 347.695 445.419 347.91 445.117 347.923C445.013 347.926 442.111 348.04 437.126 348.04ZM365.215 339.844C403.488 347.608 439.83 346.769 444.547 346.62C445.233 343.278 449.122 323.894 451.595 302.472C455.134 271.808 454.207 250.814 448.911 241.713C415.557 232.207 403.938 234.523 393.105 242.501C386.903 247.069 379.812 259.751 374.601 275.601C370.146 289.153 364.917 311.269 365.217 339.842L365.215 339.844Z" fill="#000206"/>
<path d="M404.336 236.164C404.336 236.164 402.724 242.504 404.867 248.805L410.378 246.735L410.865 234.847C410.865 234.847 407.713 232.787 404.336 236.164Z" fill="#222A38"/>
<path d="M404.867 249.467C404.771 249.467 404.673 249.445 404.584 249.403C404.423 249.326 404.3 249.188 404.242 249.019C402.062 242.606 403.629 236.267 403.696 236C403.725 235.885 403.785 235.78 403.868 235.696C407.58 231.983 411.188 234.269 411.224 234.292C411.419 234.42 411.531 234.639 411.522 234.872L411.036 246.76C411.025 247.025 410.856 247.257 410.609 247.35L405.098 249.421C405.023 249.449 404.945 249.463 404.865 249.463L404.867 249.467ZM404.936 236.502C404.716 237.508 403.717 242.695 405.284 247.945L409.737 246.273L410.188 235.238C409.403 234.886 407.269 234.271 404.936 236.503V236.502Z" fill="#000206"/>
<path d="M409.163 228.053C409.163 228.053 409.408 244.019 409.9 247.211C416.774 253.843 434.205 237.632 434.205 237.632C434.205 237.632 433.37 218.398 434.598 206.117C435.825 193.836 436.662 171.959 413.585 175.644C390.508 179.328 394.886 210.168 396.993 219.916C399.015 229.265 409.163 228.053 409.163 228.053Z" fill="#222A38"/>
<path d="M414.159 249.46C412.366 249.46 410.744 248.942 409.442 247.687C409.339 247.588 409.269 247.455 409.248 247.312C408.809 244.458 408.569 231.903 408.516 228.757C407.528 228.791 405.656 228.745 403.643 228.121C400.93 227.278 397.462 225.197 396.35 220.054C395.124 214.386 391.736 194.993 399.617 183.461C402.802 178.8 407.468 175.949 413.482 174.989C420.638 173.847 426.158 175.053 429.889 178.573C436.472 184.784 436.216 196.59 435.257 206.181C434.049 218.273 434.857 237.41 434.866 237.602C434.875 237.796 434.798 237.982 434.656 238.114C434.058 238.67 422.346 249.454 414.161 249.456L414.159 249.46ZM410.522 246.888C413.804 249.778 419.789 247.124 424.27 244.356C428.717 241.61 432.585 238.208 433.533 237.351C433.434 234.818 432.809 217.388 433.942 206.051C434.871 196.76 435.147 185.351 428.982 179.535C425.563 176.31 420.418 175.221 413.688 176.294C408.045 177.195 403.677 179.858 400.704 184.208C393.121 195.305 396.44 214.237 397.638 219.775C398.419 223.389 400.557 225.767 403.991 226.846C406.619 227.671 409.06 227.399 409.085 227.396C409.271 227.374 409.456 227.431 409.596 227.555C409.737 227.678 409.818 227.856 409.822 228.043C409.824 228.199 410.062 243.308 410.52 246.886L410.522 246.888Z" fill="#000206"/>
<path d="M472.106 375.083C472.106 375.083 481.274 362.27 486.844 346.399L465.806 336.477C462.587 351.41 453.693 370.989 453.693 370.989C453.693 370.989 449.507 375.205 442.568 375.205C435.628 375.205 434.814 377.905 436.312 379.405C437.811 380.906 445.652 380.177 449.422 380.177C447.707 389.521 441.111 394.921 441.624 397.065C442.138 399.209 447.793 404.351 457.303 400.323C465.842 396.706 470.978 379.244 471.939 375.712C472.083 375.514 472.138 375.301 472.105 375.084L472.106 375.083Z" fill="#222A38"/>
<path d="M450.554 402.47C447.974 402.47 446.061 401.782 444.895 401.196C442.569 400.021 441.255 398.352 440.983 397.22C440.711 396.091 441.647 394.694 443.063 392.58C444.95 389.765 447.501 385.959 448.614 380.847C447.939 380.861 447.178 380.888 446.386 380.915C441.013 381.103 437.112 381.139 435.847 379.873C435.061 379.087 434.816 378.076 435.193 377.169C435.598 376.19 437.096 374.546 442.569 374.546C448.624 374.546 452.544 371.158 453.146 370.602C453.885 368.957 462.125 350.438 465.163 336.338C465.206 336.141 465.336 335.976 465.517 335.885C465.698 335.796 465.908 335.795 466.091 335.88L487.128 345.802C487.434 345.946 487.581 346.298 487.469 346.618C482.294 361.366 473.924 373.636 472.776 375.282C472.764 375.527 472.688 375.765 472.552 375.987C471.522 379.743 466.306 397.228 457.565 400.931C454.868 402.074 452.519 402.472 450.556 402.472L450.554 402.47ZM449.422 379.517C449.618 379.517 449.804 379.605 449.928 379.756C450.055 379.907 450.106 380.104 450.071 380.298C449.01 386.078 446.091 390.435 444.16 393.316C443.117 394.873 442.131 396.345 442.266 396.912C442.422 397.563 443.435 398.981 445.49 400.017C447.338 400.951 451.296 402.15 457.048 399.715C465.309 396.215 470.373 378.961 471.303 375.538C471.325 375.459 471.36 375.387 471.407 375.323C471.463 375.246 471.456 375.203 471.453 375.184C471.426 375.013 471.469 374.839 471.568 374.699C471.659 374.572 480.53 362.08 486.021 346.742L466.272 337.428C462.935 352.153 454.381 371.071 454.294 371.265C454.262 371.336 454.216 371.401 454.16 371.456C453.981 371.636 449.699 375.866 442.566 375.866C438.579 375.866 436.772 376.801 436.41 377.674C436.181 378.225 436.543 378.703 436.778 378.94C437.735 379.898 443.12 379.709 446.338 379.596C447.478 379.555 448.557 379.517 449.42 379.517H449.422Z" fill="#000206"/>
<path d="M440.18 281.764C440.18 281.764 459.954 298.792 465.247 323.359C466.448 327.184 465.911 333.13 464.471 339.819C471.312 345.935 478.824 350.256 486.844 353.219C491.199 340.807 497.861 325.97 494.846 313.533C488.718 288.247 459.935 243.725 449.346 241.157L440.18 281.768V281.764Z" fill="#8C193C"/>
<path d="M486.844 353.877C486.766 353.877 486.689 353.863 486.615 353.836C478.067 350.678 470.68 346.252 464.03 340.309C463.852 340.151 463.774 339.909 463.824 339.678C465.405 332.344 465.671 326.919 464.616 323.556C464.611 323.537 464.605 323.517 464.6 323.498C461.894 310.94 455.289 300.405 450.223 293.778C444.721 286.581 439.796 282.308 439.748 282.265C439.473 282.027 439.441 281.611 439.679 281.334C439.917 281.056 440.333 281.026 440.61 281.264C440.66 281.307 445.67 285.651 451.252 292.948C456.403 299.683 463.122 310.392 465.885 323.19C466.979 326.715 466.748 332.229 465.195 339.579C471.481 345.137 478.442 349.327 486.444 352.363C486.983 350.845 487.546 349.311 488.137 347.697C492.176 336.685 496.752 324.203 494.205 313.684C491.433 302.244 483.388 285.191 473.212 269.176C463.374 253.695 453.945 242.947 449.189 241.793C448.836 241.708 448.617 241.351 448.704 240.995C448.79 240.641 449.147 240.423 449.502 240.51C455.656 242.003 466.361 255.931 474.327 268.466C484.577 284.595 492.686 301.802 495.489 313.373C498.133 324.282 493.482 336.962 489.378 348.15C488.704 349.984 488.07 351.716 487.468 353.433C487.409 353.6 487.286 353.737 487.126 353.811C487.038 353.852 486.942 353.873 486.846 353.873L486.844 353.877Z" fill="#000206"/>
<path d="M391.608 189.338C391.608 189.338 391.028 197.631 403.753 197.631C416.477 197.631 414.742 198.403 416.284 203.225C417.826 208.047 418.983 203.805 423.994 201.297C429.006 198.788 431.32 203.805 429.778 208.625C428.235 213.448 427.656 219.04 430.357 220.584C433.057 222.129 438.067 222.127 440.381 218.27C442.694 214.413 439.801 209.398 438.067 205.347C443.273 193.388 440.766 187.988 436.717 185.096C438.453 171.98 430.741 168.895 422.065 171.209C409.534 166.772 402.015 171.788 400.665 178.345C392.761 179.888 389.676 180.854 391.604 189.339L391.608 189.338Z" fill="#000206"/>
<path d="M543.751 220.776L540.638 222.575C540.638 222.575 533.691 231.192 536.903 240.449C540.116 249.707 536.132 251.765 529.834 258.066C523.536 264.368 529.843 273.239 537.93 275.296C546.019 277.352 559.394 277.061 559.394 268.317C559.394 259.574 554.983 243.112 554.983 238.245C550.14 230.549 543.749 220.776 543.749 220.776H543.751Z" fill="#000206"/>
<path d="M342.159 225.298C342.159 225.298 345.917 211.132 344.76 206.889C343.604 202.646 334.992 197.116 334.992 197.116C331.766 195.658 329.963 197.566 331.78 201.489C331.78 201.489 335.893 205.344 335.893 208.046C335.893 210.748 331.78 216.018 331.78 216.917C331.78 217.817 334.992 222.189 334.992 222.189L342.158 225.298H342.159Z" fill="#222A38"/>
<path d="M342.159 225.959C342.102 225.959 342.046 225.952 341.989 225.938C341.637 225.844 341.427 225.483 341.52 225.131C341.557 224.991 345.219 211.089 344.123 207.065C343.085 203.257 335.308 198.113 334.676 197.701C333.511 197.185 332.542 197.155 332.079 197.622C331.519 198.188 331.615 199.514 332.327 201.099C333.066 201.808 336.552 205.294 336.552 208.048C336.552 209.946 334.912 212.669 333.594 214.857C333.12 215.646 332.532 216.62 332.445 216.93C332.572 217.523 334.125 219.896 335.525 221.8C335.742 222.093 335.678 222.507 335.385 222.723C335.092 222.939 334.678 222.875 334.463 222.582C333.216 220.885 331.121 217.891 331.121 216.919C331.121 216.427 331.533 215.723 332.464 214.175C333.567 212.344 335.234 209.576 335.234 208.046C335.234 206.067 332.416 202.989 331.329 201.97C331.267 201.912 331.217 201.842 331.181 201.766C330.156 199.551 330.142 197.702 331.142 196.691C332.029 195.795 333.532 195.731 335.266 196.515C335.296 196.528 335.324 196.544 335.351 196.561C335.712 196.792 344.19 202.278 345.4 206.716C346.59 211.08 342.955 224.884 342.799 225.469C342.721 225.764 342.454 225.959 342.161 225.959H342.159Z" fill="#000206"/>
<path d="M302.335 165.667L330.275 186.122C331.883 191.556 329.961 196.055 325.425 199.862C325.425 199.862 293.365 204.245 295.499 203.229C297.632 202.214 302.335 165.665 302.335 165.665V165.667Z" fill="#222A38"/>
<path d="M295.874 204.048C295.257 204.048 294.895 203.94 294.765 203.506C294.747 203.449 294.619 202.953 295.161 202.66C295.472 202.304 296.606 199.852 299.139 183.486C300.53 174.503 301.669 165.67 301.682 165.581C301.712 165.35 301.861 165.151 302.076 165.059C302.291 164.966 302.538 164.995 302.726 165.133L330.666 185.589C330.783 185.674 330.869 185.795 330.909 185.934C332.512 191.348 330.81 196.204 325.851 200.369C325.755 200.449 325.64 200.5 325.517 200.516C325.443 200.527 317.968 201.547 310.567 202.479C306.217 203.026 302.742 203.437 300.239 203.696C298.746 203.853 297.585 203.956 296.785 204.006C296.437 204.027 296.135 204.046 295.877 204.046L295.874 204.048ZM302.845 166.858C302.486 169.572 301.506 176.868 300.369 184.169C298.448 196.499 297.325 200.991 296.616 202.701C300.719 202.452 315.54 200.547 325.144 199.235C329.55 195.474 331.043 191.312 329.703 186.522L302.845 166.858Z" fill="#000206"/>
<path d="M307.872 186.672C310.268 176.329 307.782 166.918 302.319 165.651C296.856 164.384 290.485 171.741 288.089 182.084C285.693 192.427 288.179 201.838 293.642 203.105C299.105 204.372 305.476 197.014 307.872 186.672Z" fill="#222A38"/>
<path d="M294.914 203.922C294.44 203.922 293.971 203.869 293.507 203.762C290.615 203.092 288.41 200.399 287.296 196.181C286.221 192.109 286.28 187.055 287.463 181.95C288.646 176.845 290.816 172.281 293.573 169.097C296.428 165.8 299.594 164.353 302.486 165.023C305.379 165.693 307.584 168.386 308.698 172.604C309.773 176.676 309.714 181.73 308.531 186.835C307.347 191.94 305.178 196.505 302.421 199.688C300.022 202.457 297.405 203.922 294.914 203.922ZM301.081 166.184C298.979 166.184 296.709 167.492 294.57 169.961C291.951 172.985 289.883 177.348 288.747 182.247C287.612 187.146 287.55 191.975 288.572 195.843C289.554 199.565 291.412 201.921 293.806 202.475C296.199 203.03 298.903 201.734 301.422 198.824C304.041 195.801 306.109 191.437 307.244 186.538C308.38 181.639 308.442 176.81 307.42 172.942C306.438 169.22 304.579 166.865 302.186 166.31C301.824 166.227 301.454 166.184 301.081 166.184Z" fill="#000206"/>
<path d="M305.589 185.679C307.511 177.382 305.708 169.877 301.561 168.915C297.415 167.953 292.495 173.9 290.573 182.197C288.65 190.494 290.454 198 294.6 198.962C298.747 199.923 303.667 193.977 305.589 185.679Z" fill="#222A38"/>
<path d="M295.52 199.739C295.165 199.739 294.813 199.7 294.467 199.619C292.205 199.094 290.506 196.92 289.686 193.499C288.902 190.235 288.994 186.174 289.947 182.062C290.899 177.951 292.603 174.264 294.742 171.678C296.986 168.967 299.468 167.762 301.728 168.287C303.989 168.811 305.688 170.985 306.509 174.406C307.292 177.67 307.2 181.732 306.248 185.843C305.295 189.954 303.592 193.641 301.452 196.227C299.553 198.524 297.483 199.738 295.52 199.738V199.739ZM300.674 169.488C299.114 169.488 297.396 170.539 295.758 172.521C293.747 174.952 292.139 178.447 291.231 182.361C290.323 186.275 290.231 190.121 290.967 193.189C291.665 196.099 293.013 197.926 294.763 198.332C296.513 198.737 298.526 197.692 300.434 195.385C302.446 192.953 304.053 189.458 304.961 185.544C305.869 181.63 305.962 177.784 305.226 174.716C304.528 171.806 303.179 169.979 301.429 169.573C301.182 169.517 300.93 169.488 300.674 169.488Z" fill="#000206"/>
<path d="M323.131 202.557L324.888 202.304C324.888 202.304 330.192 202.256 330.723 203.383C331.254 204.512 331.267 214.99 328.868 217.392C326.47 219.791 320.937 218.862 320.937 218.862C320.937 218.862 319.07 218.234 319.07 216.871L323.131 202.558V202.557Z" fill="#222A38"/>
<path d="M323.366 219.699C321.982 219.699 320.926 219.528 320.827 219.51C320.793 219.505 320.759 219.496 320.726 219.486C320.632 219.454 318.409 218.686 318.409 216.867C318.409 216.503 318.704 216.208 319.068 216.208C319.432 216.208 319.727 216.503 319.727 216.867C319.727 217.635 320.861 218.122 321.101 218.216C321.678 218.302 326.391 218.929 328.397 216.922C330.577 214.741 330.524 204.709 330.128 203.676C329.771 203.277 327.369 202.946 324.935 202.964L323.222 203.211C322.861 203.262 322.527 203.012 322.474 202.651C322.422 202.29 322.673 201.956 323.034 201.903L324.791 201.65C324.819 201.647 324.849 201.643 324.88 201.643C327.017 201.623 330.698 201.787 331.316 203.101C331.714 203.947 331.748 207.319 331.549 209.958C331.338 212.76 330.782 216.405 329.33 217.857C327.816 219.372 325.276 219.701 323.362 219.701L323.366 219.699Z" fill="#000206"/>
<path d="M300.037 185.457C300.647 182.248 299.955 179.42 298.491 179.141C297.026 178.863 295.345 181.238 294.735 184.448C294.124 187.657 294.817 190.485 296.281 190.764C297.745 191.042 299.427 188.667 300.037 185.457Z" fill="#222A38"/>
<path d="M296.536 191.46C296.414 191.46 296.293 191.449 296.172 191.426C294.291 191.069 293.4 188.02 294.1 184.339C294.8 180.656 296.748 178.15 298.629 178.509C300.511 178.866 301.401 181.915 300.701 185.596C300.388 187.238 299.796 188.737 299.033 189.816C298.272 190.889 297.398 191.462 296.536 191.462V191.46ZM298.274 179.794C297.419 179.794 295.98 181.522 295.397 184.585C294.79 187.782 295.582 189.969 296.419 190.129C296.845 190.21 297.421 189.807 297.956 189.051C298.611 188.125 299.127 186.81 299.404 185.349C300.011 182.151 299.219 179.965 298.382 179.805C298.347 179.798 298.311 179.794 298.274 179.794Z" fill="#000206"/>
<path d="M306.375 180.868C306.347 180.868 306.317 180.866 306.287 180.862L298.418 179.81C298.057 179.762 297.803 179.43 297.851 179.069C297.899 178.708 298.233 178.454 298.592 178.502L306.461 179.554C306.821 179.602 307.075 179.935 307.028 180.295C306.983 180.628 306.701 180.868 306.374 180.868H306.375Z" fill="#000206"/>
<path d="M302.353 194.494C302.254 194.494 302.152 194.471 302.056 194.423L295.998 191.366C295.673 191.202 295.541 190.804 295.707 190.479C295.87 190.153 296.268 190.022 296.593 190.187L302.652 193.244C302.977 193.408 303.108 193.806 302.943 194.131C302.828 194.361 302.595 194.494 302.353 194.494Z" fill="#000206"/>
<path d="M718.514 598.189C718.514 598.189 697.089 602.112 685.603 602.556C674.117 602.999 660.298 600.973 660.298 600.973C660.442 599.679 660.621 598.187 660.817 596.588C666.275 596.89 676.629 597.398 684.576 597.398C693.932 597.398 713.396 593.968 719.848 592.782C720.079 595.516 718.516 598.189 718.516 598.189H718.514Z" fill="#222A38"/>
<path d="M682.199 603.278C671.614 603.278 660.327 601.643 660.202 601.625C659.85 601.574 659.602 601.252 659.643 600.898C659.772 599.729 659.937 598.333 660.163 596.506C660.206 596.161 660.504 595.909 660.854 595.926C666.294 596.229 676.61 596.735 684.576 596.735C693.929 596.735 713.847 593.21 719.729 592.13C719.912 592.096 720.101 592.142 720.25 592.254C720.397 592.368 720.492 592.537 720.508 592.723C720.753 595.633 719.156 598.404 719.088 598.52C718.99 598.685 718.827 598.801 718.637 598.836C718.422 598.875 697.033 602.773 685.632 603.212C684.507 603.255 683.359 603.275 682.203 603.275L682.199 603.278ZM661.025 600.406C663.859 600.79 675.666 602.276 685.577 601.895C696.134 601.488 715.396 598.079 718.082 597.596C718.397 596.975 719.145 595.329 719.205 593.57C711.21 595.025 693.484 598.058 684.575 598.058C676.867 598.058 666.986 597.587 661.396 597.281C661.247 598.504 661.126 599.521 661.025 600.408V600.406Z" fill="#000206"/>
<path d="M692.93 574.381C692.93 574.381 684.834 581.068 684.834 582.611C687.275 586.468 692.031 589.04 694.602 586.468C697.173 583.896 699.614 577.597 699.614 577.597L692.93 574.383V574.381Z" fill="#000206"/>
<path d="M551.04 580.942C551.04 580.942 540.823 584.318 540.823 585.971C542.173 590.711 547.21 593.527 547.956 592.782C548.702 592.035 557.461 586.321 557.461 586.321L551.04 580.942Z" fill="#000206"/>
<path d="M357.163 578.109L361.598 583.125L359.381 584.474L354.271 579.938L357.163 578.109Z" fill="#8C193C"/>
<path d="M359.381 585.135C359.222 585.135 359.066 585.078 358.942 584.968L353.834 580.432C353.679 580.295 353.598 580.091 353.614 579.884C353.63 579.678 353.743 579.492 353.919 579.38L356.812 577.551C357.085 577.378 357.444 577.428 357.659 577.671L362.094 582.686C362.223 582.832 362.282 583.029 362.252 583.223C362.223 583.416 362.11 583.587 361.943 583.688L359.725 585.039C359.619 585.103 359.5 585.135 359.382 585.135H359.381ZM355.365 580.028L359.453 583.658L360.58 582.972L357.041 578.969L355.365 580.028Z" fill="#000206"/>
<path d="M350.737 580.681L355.172 585.695L352.954 587.046L347.845 582.51L350.737 580.681Z" fill="#8C193C"/>
<path d="M352.954 587.705C352.796 587.705 352.64 587.649 352.516 587.538L347.408 583.002C347.253 582.864 347.171 582.661 347.187 582.455C347.203 582.249 347.317 582.062 347.493 581.95L350.385 580.121C350.659 579.948 351.018 579.998 351.233 580.242L355.667 585.256C355.797 585.402 355.854 585.599 355.825 585.793C355.797 585.987 355.683 586.157 355.516 586.259L353.299 587.609C353.192 587.673 353.073 587.705 352.956 587.705H352.954ZM348.939 582.599L353.027 586.228L354.154 585.542L350.614 581.539L348.939 582.599Z" fill="#000206"/>
<path d="M508.727 587.689C506.462 589.426 503.354 590.907 500.018 592.318L501.393 594.44C505.254 593.642 508.828 592.608 511.198 590.583L508.727 587.689Z" fill="#8C193C"/>
<path d="M501.393 595.1C501.173 595.1 500.963 594.99 500.839 594.799L499.464 592.677C499.357 592.514 499.329 592.311 499.385 592.124C499.442 591.938 499.579 591.787 499.758 591.71C502.669 590.478 505.963 588.976 508.324 587.165C508.603 586.952 508.999 586.993 509.226 587.261L511.698 590.155C511.811 590.288 511.868 590.461 511.854 590.635C511.84 590.809 511.758 590.971 511.625 591.084C509.018 593.31 505.057 594.357 501.525 595.086C501.48 595.094 501.436 595.1 501.391 595.1H501.393ZM500.999 592.617L501.7 593.699C504.714 593.058 507.979 592.163 510.251 590.489L508.624 588.584C506.409 590.167 503.594 591.497 500.997 592.615L500.999 592.617Z" fill="#000206"/>
<path d="M512.972 592.83C510.706 594.567 507.599 596.047 504.262 597.459L505.638 599.581C509.498 598.783 513.073 597.748 515.443 595.724L512.972 592.83Z" fill="#8C193C"/>
<path d="M505.638 600.24C505.417 600.24 505.208 600.13 505.083 599.94L503.708 597.818C503.602 597.654 503.573 597.452 503.63 597.265C503.687 597.078 503.824 596.927 504.003 596.851C506.913 595.619 510.207 594.117 512.568 592.306C512.847 592.092 513.244 592.133 513.471 592.402L515.942 595.295C516.056 595.429 516.113 595.601 516.099 595.775C516.084 595.95 516.003 596.111 515.869 596.225C513.263 598.451 509.301 599.497 505.769 600.226C505.725 600.235 505.68 600.24 505.636 600.24H505.638ZM505.243 597.757L505.945 598.84C508.958 598.198 512.224 597.304 514.496 595.63L512.869 593.724C510.653 595.308 507.839 596.637 505.241 597.756L505.243 597.757Z" fill="#000206"/>
<path d="M573.918 270.152C573.918 270.152 559.396 286.609 563.894 290.724C568.393 294.839 572.12 286.352 573.277 282.752C574.433 279.151 573.92 270.152 573.92 270.152H573.918Z" fill="#222A38"/>
<path d="M566.323 292.489C565.339 292.489 564.374 292.063 563.447 291.213C561.304 289.254 562.388 284.987 566.668 278.531C569.725 273.916 573.385 269.757 573.423 269.714C573.6 269.514 573.879 269.439 574.133 269.528C574.386 269.615 574.562 269.846 574.576 270.114C574.597 270.488 575.084 279.281 573.902 282.955C573.455 284.35 571.028 291.359 567.242 292.365C566.934 292.447 566.627 292.488 566.323 292.488V292.489ZM573.327 271.867C572.023 273.435 569.759 276.256 567.762 279.272C564.012 284.933 562.795 288.828 564.339 290.239C565.213 291.039 566.051 291.318 566.904 291.091C569.494 290.403 571.733 285.399 572.648 282.551C573.458 280.029 573.412 274.617 573.329 271.865L573.327 271.867Z" fill="#000206"/>
<path d="M593.517 278.575C593.517 278.575 575.137 268.031 574.496 270.603C573.853 273.175 587.862 290.276 591.717 286.675C595.572 283.074 593.773 279.988 593.517 278.575Z" fill="#222A38"/>
<path d="M590.384 287.836C589.493 287.836 588.428 287.473 587.199 286.748C584.653 285.248 581.302 282.095 578.237 278.314C576.779 276.513 573.43 272.142 573.854 270.443C573.941 270.095 574.179 269.821 574.526 269.673C575.068 269.442 576.34 268.9 585.365 273.447C589.708 275.633 593.803 277.98 593.844 278.003C594.012 278.099 594.13 278.266 594.165 278.458C594.199 278.639 594.268 278.877 594.35 279.151C594.833 280.786 595.732 283.831 592.168 287.159C591.685 287.61 591.088 287.836 590.384 287.836ZM575.128 270.864C575.181 272.599 582.48 282.626 588.126 285.76C589.159 286.332 590.539 286.872 591.266 286.193C594.233 283.422 593.542 281.076 593.083 279.524C593.028 279.338 592.977 279.165 592.936 279.005C591.98 278.463 588.435 276.469 584.722 274.601C577.34 270.886 575.519 270.8 575.128 270.864Z" fill="#000206"/>
<path d="M574.089 273.367C575.462 273.367 576.575 272.254 576.575 270.88C576.575 269.507 575.462 268.394 574.089 268.394C572.716 268.394 571.604 269.507 571.604 270.88C571.604 272.254 572.716 273.367 574.089 273.367Z" fill="#222A38"/>
<path d="M574.089 274.026C572.355 274.026 570.944 272.615 570.944 270.88C570.944 269.145 572.355 267.734 574.089 267.734C575.823 267.734 577.234 269.145 577.234 270.88C577.234 272.615 575.823 274.026 574.089 274.026ZM574.089 269.055C573.083 269.055 572.264 269.874 572.264 270.88C572.264 271.886 573.083 272.706 574.089 272.706C575.095 272.706 575.914 271.886 575.914 270.88C575.914 269.874 575.095 269.055 574.089 269.055Z" fill="#000206"/>
<path d="M717.427 407.352C717.427 416.499 710.014 423.913 700.874 423.913C710.016 423.913 717.427 431.328 717.427 440.474C717.427 431.326 724.839 423.913 733.98 423.913C724.837 423.913 717.427 416.497 717.427 407.352Z" fill="#35383F"/>
<path d="M508.727 446.963C508.727 456.11 501.315 463.524 492.174 463.524C501.317 463.524 508.727 470.94 508.727 480.085C508.727 470.938 516.139 463.524 525.28 463.524C516.138 463.524 508.727 456.108 508.727 446.963Z" fill="#35383F"/>
<path d="M338.02 360.868C338.02 370.015 330.608 377.429 321.467 377.429C330.609 377.429 338.02 384.845 338.02 393.99C338.02 384.843 345.432 377.429 354.573 377.429C345.43 377.429 338.02 370.013 338.02 360.868Z" fill="#35383F"/>
<path d="M409.163 228.715C408.832 228.715 408.546 228.466 408.507 228.13C408.466 227.767 408.726 227.44 409.086 227.397L416.07 226.592C416.435 226.55 416.76 226.811 416.802 227.172C416.843 227.534 416.584 227.861 416.223 227.904L409.239 228.709C409.214 228.713 409.188 228.713 409.163 228.713V228.715Z" fill="#000206"/>
<path d="M549.368 408.011C549.024 408.011 548.732 407.743 548.711 407.392C548.688 407.028 548.963 406.715 549.328 406.692C549.397 406.688 556.255 406.216 559.442 403.027C559.7 402.769 560.117 402.769 560.375 403.027C560.633 403.285 560.633 403.702 560.375 403.96C556.834 407.503 549.713 407.991 549.411 408.009C549.397 408.009 549.383 408.009 549.368 408.009V408.011Z" fill="#000206"/>
<path d="M690.951 338.816H797.306C797.306 338.816 789.13 314.706 761.367 325.508C747.294 296.384 727.245 314.706 724.352 329.751C710.086 311.043 690.949 333.802 690.949 338.816H690.951Z" fill="#35383F"/>
<path d="M758.304 359.945C758.304 359.945 723.69 350.688 719.319 359.003C714.948 367.319 758.304 359.945 758.304 359.945Z" fill="#35383F"/>
<path d="M777.67 368.881C777.67 368.881 756.249 363.033 755.135 368.005C754.021 372.976 777.67 368.881 777.67 368.881Z" fill="#35383F"/>
<path d="M412.064 248.806C412.064 248.806 418.917 255.057 420.461 254.165C428.001 250.478 440.884 238.866 440.884 238.866L434.075 233.841C434.075 233.841 417.289 248.247 412.062 248.807L412.064 248.806Z" fill="#222A38"/>
<path d="M420.089 254.92C419.295 254.92 417.947 254.374 415.284 252.346C413.375 250.894 411.691 249.358 411.62 249.294C411.428 249.12 411.357 248.848 411.437 248.601C411.519 248.354 411.736 248.178 411.995 248.15C416.115 247.709 429.023 237.309 433.649 233.339C433.882 233.139 434.223 233.126 434.47 233.309L441.276 238.334C441.436 238.452 441.534 238.635 441.543 238.834C441.552 239.031 441.473 239.223 441.326 239.356C440.798 239.833 428.307 251.058 420.768 254.749C420.591 254.849 420.376 254.92 420.089 254.92ZM413.445 249.143C414.088 249.698 414.994 250.46 415.955 251.196C419.341 253.795 420.114 253.596 420.145 253.587C420.157 253.58 420.157 253.578 420.171 253.573C426.62 250.419 437.206 241.237 439.837 238.914L434.106 234.683C431.661 236.756 419.253 247.136 413.445 249.145V249.143Z" fill="#000206"/>
</svg>
